<svg
      id="_19873"
      data-name="19873"
      xmlns="http://www.w3.org/2000/svg"
      width="220.953"
      height="99.153"
      viewBox="0 0 277.953 99.153">
      <defs>
        <linearGradient
          id="linear-gradient"
          y1="0.5"
          x2="1"
          y2="0.5"
          gradientUnits="objectBoundingBox">
          <stop offset="0" stop-color="#ff9f55" />
          <stop offset="1" stop-color="#ffd255" />
        </linearGradient>
      </defs>
      <g id="Слой_1" data-name="Слой 1">
        <path
          id="Path_3384"
          data-name="Path 3384"
          d="M284.673,754.137c0,4.274-62.224,7.737-138.977,7.737S6.72,758.411,6.72,754.137,68.944,746.4,145.7,746.4,284.673,749.865,284.673,754.137Z"
          transform="translate(-6.72 -662.721)"
          fill="#5f90d6"
        />
        <path
          id="Path_3385"
          data-name="Path 3385"
          d="M778.761,755.253s1.913,3.246,2.722,3.781c1.1.719.409,1.447-.115,1.448s-3.183.19-3.768-.474-.878-2.66-1.423-3.182-1.045-2.446.266-3.094C777.883,753.006,778.761,755.253,778.761,755.253Z"
          transform="translate(-687.517 -669.085)"
          fill="#e55353"
        />
        <path
          id="Path_3386"
          data-name="Path 3386"
          d="M784.123,753.28s2.082,4.073,2.459,4.635-.712.561-1.386.294-2.428-2.97-2.617-3.489a2.939,2.939,0,0,1-.052-1.271Z"
          transform="translate(-693.598 -668.812)"
          fill="#3b3b40"
        />
        <path
          id="Path_3387"
          data-name="Path 3387"
          d="M769.85,757.47l.505,3.9.269.012-.084-2.8Z"
          transform="translate(-681.656 -670.685)"
          fill="#e55353"
        />
        <path
          id="Path_3388"
          data-name="Path 3388"
          d="M635.927,722.5s.458,3.74.987,4.549c.718,1.1-.2,1.489-.681,1.282s-2.992-1.1-3.268-1.94.258-2.789-.034-3.484.019-2.66,1.481-2.735C636.02,720.091,635.927,722.5,635.927,722.5Z"
          transform="translate(-561.098 -639.498)"
          fill="#e55353"
        />
        <path
          id="Path_3389"
          data-name="Path 3389"
          d="M644.609,720.707s.282,4.567.4,5.233-.877.229-1.389-.284-1.038-3.692-1-4.239a2.965,2.965,0,0,1,.458-1.186Z"
          transform="translate(-569.76 -639.549)"
          fill="#3b3b40"
        />
        <path
          id="Path_3390"
          data-name="Path 3390"
          d="M618.212,718.78l-1.092,3.773.241.118,1.044-2.6Z"
          transform="translate(-546.425 -636.427)"
          fill="#e55353"
        />
        <path
          id="Path_3391"
          data-name="Path 3391"
          d="M753.349,276.527c-.062-.3-2.374-4.782-2.791-6.132s-.776-2.586-.984-3.121c-.014-.034-.037-.1-.066-.179-.142-.4-.449-1.281-.768-2.108l-.068-.172-.032-.316c-.229-.573,0-.9,0-1.359a1.383,1.383,0,0,0-.073-.458.1.1,0,0,0-.006-.018,10.513,10.513,0,0,1-.5-1.817c-.128-1.252-.8-6.826-.8-6.826s2.192,1.135,2.436,2.011c.369,1.329.746,3.305.84,3.914s1.046,5.669,1.244,6.7a13.4,13.4,0,0,0,.713,2.582c.286.681,2.189,6.748,2.308,7.293S753.417,276.829,753.349,276.527Z"
          transform="translate(-662.414 -226.754)"
          fill="#eea886"
        />
        <path
          id="Path_3392"
          data-name="Path 3392"
          d="M798.6,444.92a11.308,11.308,0,0,1-.19,1.451,20.02,20.02,0,0,0,.29,2.891c.05.241.188.071.244-.1.032-.1.052-.9.127-1.329.063-.364.146-.51.229-.408a7.506,7.506,0,0,1,.394,2.152c-.03.634.337,2.024.627,1.768a8.757,8.757,0,0,0,.4-3.887,12.537,12.537,0,0,0-.768-2.1Z"
          transform="translate(-707.696 -395.782)"
          fill="#eea886"
        />
        <path
          id="Path_3393"
          data-name="Path 3393"
          d="M723.793,426.756c.1.458.706,2.388,1.389,4.529h0c.623,1.948,1.307,4.082,1.719,5.442.152.506.268.906.327,1.146.394,1.6-.048,4.134-.191,6.243s2.919,13.931,2.919,13.931c.536.25,1.544-1.44,1.544-1.44-.394-.752-.344-14.086-.124-14.908a12.308,12.308,0,0,0,.142-4,3.5,3.5,0,0,1-.071-.718c-.017-1.129.215-2.994.356-5.041a57.557,57.557,0,0,0-.965-9.549c-.014-.053-.034-.127-.061-.218-.264-.9-1.111-3.446-1.111-3.446a8.418,8.418,0,0,0-3.983-.408,2.966,2.966,0,0,0-2.336,2.005C722.507,422.653,723.67,426.158,723.793,426.756Z"
          transform="translate(-640.973 -372.144)"
          fill="#3b3b40"
        />
        <path
          id="Path_3394"
          data-name="Path 3394"
          d="M645.07,439.453l1.742.613c.3-1.43,7.369-11.438,7.8-12.547a16.232,16.232,0,0,0,.891-4.04c0-.141.01-.378.031-.687.076-1.193.294-3.437.607-5.193.058-.327.115-.636.184-.917a76.9,76.9,0,0,0,.411-9.7c0-1.35-.008-2.279-.008-2.279l-.086-.066c-.652-.493-4.835-3.5-6.293-.687a8.433,8.433,0,0,0-.789,2.373c-.468,2.549-.009,5.419.369,8.035.323,2.238.942,5.4,1.119,7.746a5.847,5.847,0,0,1-.229,2.843,32.194,32.194,0,0,0-3.29,7.689C646.988,434.269,645.07,439.453,645.07,439.453Z"
          transform="translate(-571.932 -358.454)"
          fill="#3b3b40"
        />
        <path
          id="Path_3395"
          data-name="Path 3395"
          d="M682.7,147.764s.91-5.884-3.964-5.776-4.812,3.018-4.722,5.906,1.955,2.671-.152,6.689,1.824,4.018,1.824,4.018l3.05-4.191Z"
          transform="translate(-596.875 -127.557)"
          fill="#3c4145"
        />
        <path
          id="Path_3396"
          data-name="Path 3396"
          d="M693.125,146.4s3.3.52,3.43,5.211-.89,5.69-3.781,4.712-3.8-5.884-3.865-6.645S688.673,145.834,693.125,146.4Z"
          transform="translate(-610.731 -131.403)"
          fill="#eea886"
        />
        <path
          id="Path_3397"
          data-name="Path 3397"
          d="M675.269,251.255c-.013,1.616,1.844,5.475,2.13,6.668s.739,1.573.358,3.1-1.564,6.688-1.517,7.14,10.639,2.123,12.236,1.814c0,0-1.948-7.287-2.1-8.121a36.334,36.334,0,0,1,.245-4.845c.071-.882.965-2.781.935-3.666a5.309,5.309,0,0,0-1.092-2.641c-.192-.3-.394-.6-.595-.9a17.359,17.359,0,0,0-1.633-2.137,5.231,5.231,0,0,0-.658-.525h0a3.057,3.057,0,0,0-.676-.356l-2.838-.458s-1.768.64-2.785.879C677.284,247.214,675.3,247.5,675.269,251.255Z"
          transform="translate(-598.672 -219.945)"
          fill="#f54242"
        />
        <path
          id="Path_3398"
          data-name="Path 3398"
          d="M747.83,253.45l1.644,2.592,1.518,2.4c0-.014-.105-.376-.276-1.424-.033-.2-.068-.423-.106-.674a1.823,1.823,0,0,0-.048-.221h0a7.093,7.093,0,0,0-2.731-2.664Z"
          transform="translate(-662.919 -226.249)"
          fill="#f54242"
        />
        <path
          id="Path_3399"
          data-name="Path 3399"
          d="M659.952,257.142s.458-3.074,2.708-2.568c2.164.487.136,4.518-.023,5s-1.762,4.374-1.895,4.885c-.44,1.614-.028,1.653.634,2.034,1.948,1.125,5.966,1.051,6.429,1.36a.715.715,0,0,1-.344,1.3c-1.012.044-6.794-.5-7.6-.58-.782-.077-2.34-.142-1.931-2.922C658.2,263.778,659.952,257.142,659.952,257.142Z"
          transform="translate(-583.259 -227.195)"
          fill="#eea886"
        />
        <path
          id="Path_3400"
          data-name="Path 3400"
          d="M706.515,214.565a25.282,25.282,0,0,1,.588,3.9s4.038,1.526,3.624.662a3.3,3.3,0,0,1-.246-1.338,6.666,6.666,0,0,1,.045-.815c.012-.088.019-.139.019-.139S706.228,214.025,706.515,214.565Z"
          transform="translate(-626.325 -191.759)"
          fill="#eea886"
        />
        <path
          id="Path_3401"
          data-name="Path 3401"
          d="M692.444,149.2a16.354,16.354,0,0,1-3.235,3.844c-1.541,1.086-.761,1.955-.761,1.955s-4.023-8.469-.2-9.051,6.17-.629,6.279,5.1C694.528,151.043,692.792,149.154,692.444,149.2Z"
          transform="translate(-608.704 -130.836)"
          fill="#3c4145"
        />
        <path
          id="Path_3402"
          data-name="Path 3402"
          d="M721.53,233.07a3.819,3.819,0,0,0,2.257,1.159h0a6.654,6.654,0,0,1,.045-.815A4.612,4.612,0,0,1,721.53,233.07Z"
          transform="translate(-639.632 -208.204)"
          fill="#a77860"
        />
        <path
          id="Path_3403"
          data-name="Path 3403"
          d="M750.564,256.142h0a3.368,3.368,0,0,1,.16.917l-.595-.9s-1.062-1.523-1.426-1.919a6.025,6.025,0,0,0-.864-.742A6.028,6.028,0,0,1,750.564,256.142Z"
          transform="translate(-662.928 -226.294)"
          fill="#f54242"
        />
        <path
          id="Path_3404"
          data-name="Path 3404"
          d="M706.631,301.172l-6.362-.526a.489.489,0,0,0-.529.451l-.789,10.541a.49.49,0,0,0,.439.524l6.108.629a.489.489,0,0,0,.537-.439l1.044-10.641a.49.49,0,0,0-.447-.539Z"
          transform="translate(-619.638 -268.037)"
          fill="#2f4563"
        />
        <path
          id="Path_3405"
          data-name="Path 3405"
          d="M713.343,358.443s1.205.2,1.318.184.589-.8,1.146-.939a10.644,10.644,0,0,0,1.413-.354c.171-.106.216.435-.314.657s-.663.518.33.717c.549.115,2.6-.115,2.432.229a8.081,8.081,0,0,1-2.08.344,13.615,13.615,0,0,1,2.208.115c.143.254-2,.344-2.088.337,0,0,1.833.105,1.85.269.021.205-1.833.115-1.822.151,0,0,1.46.1,1.445.229-.019.164-1.3.183-1.551.154s-2.765-.315-3.185-.4S713.31,360,713.31,360Z"
          transform="translate(-632.354 -318.219)"
          fill="#eea886"
        />
        <path
          id="Path_3406"
          data-name="Path 3406"
          d="M688.167,361.42a21.54,21.54,0,0,0,2.3.653c1.108.235-.038,1.563-.038,1.563s-1.919-.178-2.842-.267C687.142,363.325,688.167,361.42,688.167,361.42Z"
          transform="translate(-609.48 -321.849)"
          fill="#eea886"
        />
        <path
          id="Path_3407"
          data-name="Path 3407"
          d="M675.558,259.063a22.845,22.845,0,0,0-3.358-1.076s.521-4.161,3.066-3.72S675.558,259.063,675.558,259.063Z"
          transform="translate(-595.954 -226.944)"
          fill="#f54242"
        />
        <path
          id="Path_3408"
          data-name="Path 3408"
          d="M683.1,441.725c.323,2.238.942,5.4,1.119,7.746,0,0,1.825.364,4.486.687.719.088,1.5.174,2.325.25,1.425.131,2.979.229,4.547.253-.017-1.129.215-2.994.356-5.041a57.555,57.555,0,0,0-.965-9.548c-.014-.053-.034-.127-.061-.218a16.981,16.981,0,0,0-5-1.509c-.822-.141-1.646-.253-2.43-.344-2.45-.275-4.495-.317-4.747-.322C682.263,436.237,682.721,439.11,683.1,441.725Z"
          transform="translate(-605.103 -385.83)"
          fill="#f54242"
        />
        <path
          id="Path_3409"
          data-name="Path 3409"
          d="M708.284,246.782s1.9,2.925,1.26,3.181-4.125-.344-5.614-3.12A5.245,5.245,0,0,1,708.284,246.782Z"
          transform="translate(-624.049 -219.938)"
          fill="#eea886"
        />
        <path
          id="Path_3410"
          data-name="Path 3410"
          d="M425.008,443.056l-.71-1.229a.749.749,0,0,1,.274-1.022l4.019-2.32a.747.747,0,0,1,1.021.274l.71,1.229a.749.749,0,0,1-.274,1.022l-4.019,2.32A.747.747,0,0,1,425.008,443.056Z"
          transform="translate(-376.366 -389.996)"
          fill="#525252"
        />
        <path
          id="Path_3411"
          data-name="Path 3411"
          d="M423.577,439.679a1.466,1.466,0,0,1-.371-.288s-.144-.247-.257-.417a1.494,1.494,0,0,0-.093-.127,2.674,2.674,0,0,1-.522-.682,17.957,17.957,0,0,1-.494-2.011l.85-.434.739-.52a18.521,18.521,0,0,1,2.142,1.588.86.86,0,0,1,.049.089,3.278,3.278,0,0,1,.18.687c.019.055.182.621.082.765a.573.573,0,0,1-.482.283,1.363,1.363,0,0,1-.6.458.852.852,0,0,1-.67.344S423.83,439.752,423.577,439.679Z"
          transform="translate(-374.279 -387.176)"
          fill="#eea886"
        />
        <path
          id="Path_3412"
          data-name="Path 3412"
          d="M263.68,473.457l-3.855-.86a.726.726,0,0,1-.551-.868l.542-2.431a.729.729,0,0,1,.868-.551l3.855.86a.729.729,0,0,1,.552.868l-.543,2.431a.727.727,0,0,1-.868.551Zm-3.1-4.239a.241.241,0,0,0-.286.181l-.542,2.431a.239.239,0,0,0,.181.286l3.855.86a.239.239,0,0,0,.285-.182l.54-2.423a.24.24,0,0,0-.182-.285Z"
          transform="translate(-230.322 -416.862)"
          fill="#0e1e2b"
        />
        <path
          id="Path_3413"
          data-name="Path 3413"
          d="M273.453,452.911a1.427,1.427,0,0,1-.082-.446s.054-.27.081-.466c.008-.062.014-.115.015-.151a2.561,2.561,0,0,1,.06-.827,17.3,17.3,0,0,1,.933-1.77l.893.229.866.1a17.314,17.314,0,0,1,.531,2.521.75.75,0,0,1-.021.1,3.478,3.478,0,0,1-.308.608c-.022.054-.267.566-.432.607a.555.555,0,0,1-.529-.105,1.323,1.323,0,0,1-.728-.053.825.825,0,0,1-.706-.18S273.592,453.127,273.453,452.911Z"
          transform="translate(-242.819 -399.616)"
          fill="#eea886"
        />
        <path
          id="Path_3414"
          data-name="Path 3414"
          d="M285.5,257.869c-.172.221-.852,1.489-1.573,2.84h0l-.357.671c-.1.18-.191.359-.284.534l-.294.553c-.4.753-.741,1.375-.911,1.661a33.9,33.9,0,0,0-1.468,4.331c-.192.582-1.146,6.342-1.146,6.342s-3.037.01-2.944-.219,1.249-6.446,1.48-7.382c.306-1.231,1.479-4.537,1.6-4.782s2.589-5.4,2.924-6.288a9.285,9.285,0,0,1,2.014-3.543,2.549,2.549,0,0,1,3.162-.836C289.074,252.736,285.857,257.411,285.5,257.869Z"
          transform="translate(-245.61 -224.533)"
          fill="#5b94e2"
        />
        <rect
          id="Rectangle_1896"
          data-name="Rectangle 1896"
          width="14.82"
          height="10.619"
          transform="translate(24.431 53.51) rotate(12.58)"
          fill="#665955"
        />
        <rect
          id="Rectangle_1897"
          data-name="Rectangle 1897"
          width="14.885"
          height="6.182"
          transform="translate(24.403 53.792) rotate(12.653)"
          fill="#877671"
        />
        <path
          id="Path_3415"
          data-name="Path 3415"
          d="M361.83,225.057a9.563,9.563,0,0,0,0-2.427s3.626,1.676,3,2.131a1.124,1.124,0,0,0-.354.618,7.259,7.259,0,0,0-.155,1.942l1.2,1.4C366.58,230.176,361.74,225.537,361.83,225.057Z"
          transform="translate(-321.143 -198.96)"
          fill="#eea886"
        />
        <path
          id="Path_3416"
          data-name="Path 3416"
          d="M221.294,710.9s.336,1.344.638,3a7.056,7.056,0,0,0,1.912,3.175c.2.293,1.116,1.477.314,1.614s-4.087-2.051-4.986-3.311c0,0-.536-1.194-.61-1.26s-.532.284-.532.284l-.84-.58a4.413,4.413,0,0,1-.486-.418c-.129-.152.176-1,.222-1.081a10.221,10.221,0,0,1,2.472-2.55C220.348,709.338,221.294,710.9,221.294,710.9Z"
          transform="translate(-192.618 -630.223)"
          fill="#34395c"
        />
        <path
          id="Path_3417"
          data-name="Path 3417"
          d="M479.513,751.531s1.155.7,2.5,1.635a6.9,6.9,0,0,0,3.484.888c.34.064,1.772.254,1.329.895s-4.179,1.36-5.656,1.1c0,0-1.187-.458-1.284-.458s-.164.557-.164.557l-.968.171a4.163,4.163,0,0,1-.617.041c-.193-.017-.553-.793-.595-.895a9.527,9.527,0,0,1-.088-3.437C477.8,751.08,479.513,751.531,479.513,751.531Z"
          transform="translate(-423.401 -667.169)"
          fill="#3c4169"
        />
        <path
          id="Path_3418"
          data-name="Path 3418"
          d="M242.741,691.272a23.079,23.079,0,0,0-1.115,2.281c-.065.344-1.621.353-1.926-1.11,0,0,1.217-2.445,1.178-2.51S242.741,691.272,242.741,691.272Z"
          transform="translate(-213.007 -612.721)"
          fill="#eea886"
        />
        <path
          id="Path_3419"
          data-name="Path 3419"
          d="M255.686,452.4l-.3,1.038-.439,1.49c-.761,2.585-1.861,6.293-2.062,6.816a18.881,18.881,0,0,1-1.991,3.336c-.219.137-5.938,9.968-6.115,10.436,0,0-2.348-1.064-2.776-1.845,0,0,3.915-10.84,5.5-12.744,1.524-1.833,1.439-12.777,2.823-16.081S256.528,449.533,255.686,452.4Z"
          transform="translate(-215.043 -395.022)"
          fill="#34395c"
        />
        <path
          id="Path_3420"
          data-name="Path 3420"
          d="M473.111,733.31a22.788,22.788,0,0,0,.82,2.325c.193.281-.854,1.343-2.068.542,0,0-.865-2.507-.936-2.521S473.111,733.31,473.111,733.31Z"
          transform="translate(-417.74 -651.13)"
          fill="#eea886"
        />
        <path
          id="Path_3421"
          data-name="Path 3421"
          d="M324.3,429.515s4.89,11.3,5.454,12.987.293,3.137.6,3.841,4.805,16.455,4.805,16.455-2.382,1.306-3.454.786c0,0-4.072-10.365-4.932-12.062-.8-1.594-1.26-4.795-2.291-6.854-.725-1.443-9.64-12.443-9.718-16.505S324.3,429.515,324.3,429.515Z"
          transform="translate(-279.472 -379.606)"
          fill="#393d63"
        />
        <path
          id="Path_3422"
          data-name="Path 3422"
          d="M347.027,244.9a3.665,3.665,0,0,1,1.876,1.849,10.55,10.55,0,0,1,.3,3.562c.021.583.975,6.321,1.1,6.492s2.044,3.712,2.835,5.509a27.051,27.051,0,0,0,2.494,4.1l-1.313.77s-5.984-7.032-6.336-8.964a72.14,72.14,0,0,0-2.674-7.727S344.147,246.2,347.027,244.9Z"
          transform="translate(-306.306 -218.679)"
          fill="#eea886"
        />
        <path
          id="Path_3423"
          data-name="Path 3423"
          d="M353.406,152.355a4.08,4.08,0,0,1,4.181,3.859,10.07,10.07,0,0,1-.344,1.527c-.229.67.321,2.68.16,2.774a4.346,4.346,0,0,1-.817.2s-.764,2.157-1.528,2.117a6.34,6.34,0,0,1-4.927-3.466C348.845,156.62,348.537,152.452,353.406,152.355Z"
          transform="translate(-310.066 -136.736)"
          fill="#eea886"
        />
        <path
          id="Path_3424"
          data-name="Path 3424"
          d="M355.244,152.077a10.8,10.8,0,0,1-3.94,1.489,5.18,5.18,0,0,0-3.242,2.177s-2.849-3.79-.384-6.72S355.771,148.374,355.244,152.077Z"
          transform="translate(-307.724 -132.605)"
          fill="#3b3b40"
        />
        <path
          id="Path_3425"
          data-name="Path 3425"
          d="M325.956,254.954c-.6.63-.108,2.091-.188,2.922-.022.221-.091.949-.188,1.913-.1,1-.229,2.246-.361,3.451h0c-.053.481-.107.956-.159,1.4a24.752,24.752,0,0,1-.431,2.864c-.3.831-6.865.871-9.465-1.948,0,0-.458-.926,2.526-6.315.6-1.082.011-6.444-.471-7.864s-.654-6.246,3.27-7.69c0,0,2.358,2.036,3.161,2.948s3.43,4.207,3.672,5.2S326.608,254.273,325.956,254.954Z"
          transform="translate(-279.803 -217.608)"
          fill="#5b94e2"
        />
        <path
          id="Path_3426"
          data-name="Path 3426"
          d="M368.884,229.418a1.123,1.123,0,0,0-.354.618,6.258,6.258,0,0,1-2.12-2.146A6.5,6.5,0,0,0,368.884,229.418Z"
          transform="translate(-325.199 -203.618)"
          fill="#a77860"
        />
        <path
          id="Path_3427"
          data-name="Path 3427"
          d="M381.174,308.385c-.022.221-.091.949-.188,1.913h0c-.6.573-4.685-7.321-2.76-9.568,0,0,1.361,5.3,1.51,5.567S381.174,308.385,381.174,308.385Z"
          transform="translate(-335.209 -268.112)"
          fill="#3e6499"
        />
        <path
          id="Path_3428"
          data-name="Path 3428"
          d="M345.878,246.62a4.385,4.385,0,0,1,2.057,2.062,10.99,10.99,0,0,1,.308,3.722c.021.612,1.019,6.606,1.146,6.785a41.132,41.132,0,0,1,2.723,4.79,31.5,31.5,0,0,0,2.687,4.452l-2.238,1.26s-5.347-6.76-5.854-8.738c-.541-2.118-2.538-8.358-2.538-8.358S342.448,247.252,345.878,246.62Z"
          transform="translate(-305.124 -220.202)"
          fill="#5b94e2"
        />
        <path
          id="Path_3429"
          data-name="Path 3429"
          d="M332.073,303.316c-.1.18-.191.359-.284.534l-.294.559c-.133-1.6-.195-5.529-.195-5.529a17.787,17.787,0,0,0,.344,1.777C331.807,301.228,332.039,303.044,332.073,303.316Z"
          transform="translate(-294.112 -266.474)"
          fill="#3e6499"
        />
        <path
          id="Path_3430"
          data-name="Path 3430"
          d="M311.7,147.762s-5.056-.391-4.831,5.761-.808,7.77-3.045,10.557-.275,6.264,1.893,4.468a14.4,14.4,0,0,0,4.7-10.152A73.166,73.166,0,0,1,311.7,147.762Z"
          transform="translate(-268.91 -132.666)"
          fill="#3b3b40"
        />
        <path
          id="Path_3431"
          data-name="Path 3431"
          d="M370.295,193.066a.6.6,0,0,0-1.031-.458c-.629.493.148,2.3.656,2.144S370.295,193.454,370.295,193.066Z"
          transform="translate(-327.518 -172.209)"
          fill="#eea886"
        />
        <path
          id="Path_3432"
          data-name="Path 3432"
          d="M340.464,497.816l-.439,1.489c-.573-1.2-1.894-5.007-1.935-5.126C338.423,494.732,340.415,497.744,340.464,497.816Z"
          transform="translate(-300.124 -439.398)"
          fill="#2b2d4a"
        />
        <path
          id="Path_3433"
          data-name="Path 3433"
          d="M1911.075,749.912s-1.748,2.455-1.509,2.845,2.078.445,3.2,0,1.146-3.323,1.652-4.559c.212-.518-.242-2.045-.879-2.156a2.586,2.586,0,0,0-1.331.215A3.672,3.672,0,0,1,1911.075,749.912Z"
          transform="translate(-1691.532 -662.383)"
          fill="#363a5e"
        />
        <path
          id="Path_3434"
          data-name="Path 3434"
          d="M1919.56,745.944a12,12,0,0,0-.5,2.044c-.115.828-1.245,2.586-1.193,2.808a1.985,1.985,0,0,0,2.079-.149,6.9,6.9,0,0,0,1.092-3.238,8.281,8.281,0,0,1,.272-1.387S1920.119,745.332,1919.56,745.944Z"
          transform="translate(-1698.899 -662.093)"
          fill="#eea886"
        />
        <path
          id="Path_3435"
          data-name="Path 3435"
          d="M2044.343,749.943s-1.686,2.414-1.445,2.8,2.077.445,3.2,0,1.146-3.323,1.651-4.559c.212-.518-.242-2.045-.879-2.156a2.758,2.758,0,0,0-1.385.238A3.721,3.721,0,0,1,2044.343,749.943Z"
          transform="translate(-1809.588 -662.375)"
          fill="#363a5e"
        />
        <path
          id="Path_3436"
          data-name="Path 3436"
          d="M2052.866,745.577a17.2,17.2,0,0,1-.344,1.948c-.213.8-1.359,2.635-1.306,2.864a1.969,1.969,0,0,0,2.078-.149,6.134,6.134,0,0,0,1.092-3.238,5.551,5.551,0,0,0-.133-1.66A1.257,1.257,0,0,0,2052.866,745.577Z"
          transform="translate(-1816.971 -661.682)"
          fill="#eea886"
        />
        <path
          id="Path_3437"
          data-name="Path 3437"
          d="M1938.669,358.375s-1.5,7.28-1.843,9.113-1.31,10.711-1.413,12.221-1.566,7.2-1.5,7.737-2.167,11.369-2.167,11.369a1.3,1.3,0,0,0,1.568.058c.414-.3,4.906-10.14,4.906-12.832,0-3.726,2.635-8.593,2.979-9.424,3.165-7.745,2.542-10.113,2.956-10.616s.449.311.688,1.425.757,10.747,1.068,11.969.069,5.355.242,7.44.928,11.515.928,11.515a.805.805,0,0,0,1.407.025c.177-.2,1.419-10.505,1.453-12.985s.071-5.9.139-6.974c.638-10.277,2.206-11.745-.265-19.019C1945.2,345.778,1938.669,358.375,1938.669,358.375Z"
          transform="translate(-1711.194 -314.454)"
          fill="#eea886"
        />
        <path
          id="Path_3438"
          data-name="Path 3438"
          d="M1978.58,381.626s4.273,6.24,2.434,19.514c0,0-10.134,1.439-15.564-1.664,0,0,2.244-13.687,3.058-15.811S1978.58,381.626,1978.58,381.626Z"
          transform="translate(-1741.033 -339.74)"
          fill="#3f446e"
        />
        <path
          id="Path_3439"
          data-name="Path 3439"
          d="M1943.369,747.1v2.57h-.319v-1.987Z"
          transform="translate(-1720.44 -661.503)"
          fill="#363a5e"
        />
        <path
          id="Path_3440"
          data-name="Path 3440"
          d="M2076.7,747.1v2.57h-.319v-1.987Z"
          transform="translate(-1838.494 -661.503)"
          fill="#363a5e"
        />
        <path
          id="Path_3441"
          data-name="Path 3441"
          d="M2019.686,133.943s-2.864,2.883-1.887,6.594,2.542,3.733,4.267,2.136a8.449,8.449,0,0,0,2.971-5.142C2025.265,135.664,2022.3,131.372,2019.686,133.943Z"
          transform="translate(-1787.204 -119.727)"
          fill="#eea886"
        />
        <path
          id="Path_3442"
          data-name="Path 3442"
          d="M2031,207.915a16.921,16.921,0,0,0,.721-2.062c.053-.192.1-.39.143-.584a3.8,3.8,0,0,0,.048-1.833c-.458-1.347,2.865-.415,2.865-.415s-.643,3.567,0,4.77S2031,207.915,2031,207.915Z"
          transform="translate(-1799.073 -181.319)"
          fill="#eea886"
        />
        <path
          id="Path_3443"
          data-name="Path 3443"
          d="M1984.675,242.547a2.706,2.706,0,0,0-1.922-1.7c-.565-.179-3.093-.835-3.093-.835l-3.031-.115a26.5,26.5,0,0,0-3.7.907c-1.618.564-3.736,3.624-3.736,3.624s2.924,6.864,3.484,8.835a15.829,15.829,0,0,1,.186,5.017c3.5,1.908,9.125-.187,9.125-.187a11.236,11.236,0,0,1-.213-4.608c.027-.15.055-.293.088-.427s.072-.3.115-.495a.042.042,0,0,1,.006-.026c2.229.229,4.319.321,4.374-.126C1986.6,250.4,1985.394,243.979,1984.675,242.547Zm-1.544,7.825c-.09-.014-.281-.015-.483-.032.248-.687.523-1.3.523-1.3C1983.329,249.478,1983.93,250.492,1983.131,250.372Z"
          transform="translate(-1744.345 -214.252)"
          fill="#eddad3"
        />
        <path
          id="Path_3444"
          data-name="Path 3444"
          d="M2020.77,134.886a23.48,23.48,0,0,0,2.218,3.38,2.134,2.134,0,0,1,.751,1.6s3.313-4.088.95-6.556-5.411-1.472-6.3.687a10.94,10.94,0,0,0-.565,4.791A4.681,4.681,0,0,1,2020.77,134.886Z"
          transform="translate(-1787.353 -118.596)"
          fill="#e8734d"
        />
        <path
          id="Path_3445"
          data-name="Path 3445"
          d="M2051.779,115.005s-.331-1.822,2.521-2.547,4.14,2.568,3.788,4.575-2.794,7.1-1.469,7.762a1.291,1.291,0,0,0,1.842-.765s-.415,2.5-2.257,1.925-1.594-4.649-1.315-6.272S2051.779,115.005,2051.779,115.005Z"
          transform="translate(-1817.461 -101.32)"
          fill="#e8734d"
        />
        <path
          id="Path_3446"
          data-name="Path 3446"
          d="M2039.845,213.16a3.489,3.489,0,0,1-2.595,1.948c.053-.193.1-.39.143-.584C2037.393,214.522,2038.413,214.727,2039.845,213.16Z"
          transform="translate(-1804.607 -190.575)"
          fill="#a77860"
        />
        <path
          id="Path_3447"
          data-name="Path 3447"
          d="M2085.118,293.448s-.136.288-.51,1.421a22.659,22.659,0,0,1-.181-4.838A11.937,11.937,0,0,0,2085.118,293.448Z"
          transform="translate(-1846.332 -258.638)"
          fill="#cfbeb8"
        />
        <path
          id="Path_3448"
          data-name="Path 3448"
          d="M2055.75,131.257a5.011,5.011,0,0,1,3.04,2.042s-.206-1.5-1.215-1.927A2.589,2.589,0,0,0,2055.75,131.257Z"
          transform="translate(-1820.988 -117.955)"
          fill="#eddad3"
        />
        <path
          id="Path_3449"
          data-name="Path 3449"
          d="M2062.571,348.174c-.048.2-.09.371-.115.495s-.062.277-.089.427c-1.26-.687-2.157-1.217-2.157-1.217C2060.542,347.956,2062.571,348.174,2062.571,348.174Z"
          transform="translate(-1824.936 -309.86)"
          fill="#cfbeb8"
        />
        <path
          id="Path_3450"
          data-name="Path 3450"
          d="M2034.563,238.836,2031,241.745l.367-3.065A5.879,5.879,0,0,1,2034.563,238.836Z"
          transform="translate(-1799.073 -213.03)"
          fill="#eea886"
        />
        <path
          id="Path_3451"
          data-name="Path 3451"
          d="M2025.361,223.29l-1.031.494,3.5-3.474Z"
          transform="translate(-1792.407 -195.069)"
          fill="#d6c5be"
        />
        <path
          id="Path_3452"
          data-name="Path 3452"
          d="M2042.393,253.2c-.49,2.034,1.327,6.617,1.327,6.617l-3.6,1.125a.917.917,0,0,1-1.178-.687,84.334,84.334,0,0,1-1.749-10.825c-.171-3.913,2.678-8.529,2.678-8.529,5.064.868,3.676,8.529,3.676,8.529s-.185.483-.43,1.237h0q-.092.285-.195.618C2042.747,251.85,2042.56,252.507,2042.393,253.2Z"
          transform="translate(-1804.549 -215.137)"
          fill="#494f80"
        />
        <path
          id="Path_3453"
          data-name="Path 3453"
          d="M1971.57,240.088l.063-.168a17.425,17.425,0,0,0-3.912,1.053c-1.318.658-3.842,4.059-3.842,4.059l3.3,4.354c0,3.348-.54,9.3-.54,9.3l1.509.87a.615.615,0,0,0,.917-.52c.042-2.264.143-7.64.2-10.244.069-3.349,2.457-8.764,2.457-8.764C1971.677,240.049,1971.625,240.069,1971.57,240.088Z"
          transform="translate(-1739.643 -214.269)"
          fill="#494f80"
        />
        <path
          id="Path_3454"
          data-name="Path 3454"
          d="M1990,357.972a28.024,28.024,0,0,0,2.875,0c.387-.1,2.969-1.216,3.125-2.322s-6,.992-6,.992Z"
          transform="translate(-1762.771 -316.454)"
          fill="#eea886"
        />
        <path
          id="Path_3455"
          data-name="Path 3455"
          d="M1972.708,323.072l-10.1-1.182,4.563,3.712Z"
          transform="translate(-1737.759 -285.01)"
          fill="#6a77bf"
        />
        <path
          id="Path_3456"
          data-name="Path 3456"
          d="M2000.987,334.74l5.536-1.887v-.643l-5.723,1.835Z"
          transform="translate(-1771.573 -294.148)"
          fill="#323657"
        />
        <path
          id="Path_3457"
          data-name="Path 3457"
          d="M2001.376,331.141a8.5,8.5,0,0,1-1.3-.1,2.652,2.652,0,0,0-1.49.229c-.229.2-.958,1.619-1.1,1.7s.071.286.313.186c0,0,.222.62.771.387s.917-.738,1.208-.826,1.96-.54,1.96-.54S2001.808,330.991,2001.376,331.141Z"
          transform="translate(-1769.361 -294.934)"
          fill="#eea886"
        />
        <path
          id="Path_3458"
          data-name="Path 3458"
          d="M2007.17,218.95l-1.922,3.044-.928.585,2.163-3.032Z"
          transform="translate(-1774.69 -193.864)"
          fill="#fae6de"
        />
        <path
          id="Path_3459"
          data-name="Path 3459"
          d="M2012.42,221.994l1.364.585.368-3.065.19-.565Z"
          transform="translate(-1781.862 -193.864)"
          fill="#d6c5be"
        />
        <path
          id="Path_3460"
          data-name="Path 3460"
          d="M1935.707,351.6a7.6,7.6,0,0,0,0,1.555s-6.228-.622-6.809-1.489a3.738,3.738,0,0,1-.559-1.928Z"
          transform="translate(-1708.174 -311.507)"
          fill="#494f80"
        />
        <path
          id="Path_3461"
          data-name="Path 3461"
          d="M1893.141,260.541l-2.944-10.949L1879,248.41l3.068,10.078Z"
          transform="translate(-1663.728 -219.949)"
          fill="#252740"
        />
        <path
          id="Path_3462"
          data-name="Path 3462"
          d="M2035.8,220.31l-2.473,2.98,1.353,1.206,1.461-3.568Z"
          transform="translate(-1800.376 -195.069)"
          fill="#fae6de"
        />
        <path
          id="Path_3463"
          data-name="Path 3463"
          d="M2051.862,323.877l-.083.252c-.062.19-.126.4-.195.618a42.629,42.629,0,0,1-4.615-.154A25.708,25.708,0,0,1,2051.862,323.877Z"
          transform="translate(-1813.213 -288.601)"
          fill="#3d426b"
        />
        <path
          id="Path_3464"
          data-name="Path 3464"
          d="M2038,252.752c-.667-.05-1.757-.121-2.651-.125-1.389-.007-3.766.149-3.766.149l.283,1.489s4.211.687,6.51.844h0s3.034.344,3.26-.1-.075-3.359-.573-5.978-1-4.125-1.6-4.937-3.792-1.44-3.792-1.44l2.7,8.851a3.673,3.673,0,0,1,.368,1.131c0,.1-.078.152-.175.171l-.424-.034Z"
          transform="translate(-1799.586 -216.687)"
          fill="#494f80"
        />
        <path
          id="Path_3465"
          data-name="Path 3465"
          d="M1878.154,412.63s.51,1.162,1,1.016a4.37,4.37,0,0,1,1.439-.078c.3.033,1.293-.2,1.235.171s-1.615.458-1.941.537.844.909.927,1.227-1.553,2.162-2.282,1.5-1.031-1.848-1.186-1.939a8.97,8.97,0,0,1-.824-1.031Z"
          transform="translate(-1662.292 -367.192)"
          fill="#eea886"
        />
        <path
          id="Path_3466"
          data-name="Path 3466"
          d="M1896.442,436a20.657,20.657,0,0,1,2.094,2.431c.007.262-.127.369-.332.174s-2.088-2.033-2.088-2.033,2.005,2.979,2.063,3.193c.032.124-.217.344-.337.251s-2.284-2.937-2.284-2.937,1.862,2.791,1.853,2.979a.252.252,0,0,1-.441.123c-.154-.2-2.04-2.688-2.04-2.688a12.762,12.762,0,0,1,1.11,2.281c-.067.1-.273.3-.573-.257s-1.146-1.794-1.146-1.794Z"
          transform="translate(-1678.053 -387.884)"
          fill="#eea886"
        />
        <path
          id="Path_3467"
          data-name="Path 3467"
          d="M1643.518,768.38s-.8.573-1.243.97a4.173,4.173,0,0,0-1.416,1.857,1.277,1.277,0,0,0,1.215,1.833c1,.057,2.534-.694,2.683-1.611s1.324-.8,1.477-1.446a3.557,3.557,0,0,0-.052-1.44Z"
          transform="translate(-1453.533 -682.182)"
          fill="#353a3d"
        />
        <path
          id="Path_3468"
          data-name="Path 3468"
          d="M1665.064,761.83l-.134.75s.413.762,2.665.168l-.115-.739Z"
          transform="translate(-1474.945 -676.383)"
          fill="#81807e"
        />
        <path
          id="Path_3469"
          data-name="Path 3469"
          d="M1667.595,768.412s-.508.067-.868.124-1.077-.4-1.8-.292l.221.917S1667.546,768.708,1667.595,768.412Z"
          transform="translate(-1474.945 -682.046)"
          fill="#353a3d"
        />
        <path
          id="Path_3470"
          data-name="Path 3470"
          d="M1769.1,767.07s.8.573,1.244.971a4.169,4.169,0,0,1,1.416,1.856,1.277,1.277,0,0,1-1.216,1.833c-1,.056-2.534-.694-2.684-1.611s-1.323-.8-1.477-1.446a3.528,3.528,0,0,1,.052-1.439Z"
          transform="translate(-1564.72 -681.022)"
          fill="#353a3d"
        />
        <path
          id="Path_3471"
          data-name="Path 3471"
          d="M1769.8,760.52l.133.75s-.411.763-2.665.17l.115-.74Z"
          transform="translate(-1565.559 -675.223)"
          fill="#81807e"
        />
        <path
          id="Path_3472"
          data-name="Path 3472"
          d="M1676.7,426.561c0,1.649-.236,17.207-.236,17.207-.165.55-3.246.73-3.8.458s-.458-15.7-.554-17.365-1.438-13.9-1.919-13.845-3.208,11.579-3.591,12.842-1.9,18.277-1.9,18.277a6.9,6.9,0,0,1-3.8.078s.718-17.228.718-19.273c0-.76.229-1.335.44-5.371.164-3.076,1.02-9.381,1.592-13.72.021-.154.04-.3.06-.443.115-.844.2-1.465.236-1.763.018-.128.028-.2.028-.2.155-.071.316-.136.485-.2,4.025-1.446,11.791.085,11.791.085a.823.823,0,0,0,.012.115l.047.4c.045.383.114.952.188,1.613v.014l.007.061c.27,2.353.4,3.646.617,6.156C1677.169,412.237,1676.7,424.913,1676.7,426.561Z"
          transform="translate(-1471.377 -358.334)"
          fill="#292c47"
        />
        <path
          id="Path_3473"
          data-name="Path 3473"
          d="M1643.3,214.741s6.594,1.4,7.142,3.232,1.618,6.135,3.1,10.816c.888,2.8,5.4,9.177,5.4,9.177s-2.581,1.9-2.581,1.646-6.082-8.371-6.155-9.361a57.947,57.947,0,0,0-1.916-6.049s-.873,9.728-.873,11.228.379,6.12.379,6.12a11.2,11.2,0,0,1-7.4,1.955s-6.7.027-6.61-2.609c.081-2.322.654-16.24.508-16.313s-2.778,3.223-2.521,3.858,7.069,2.911,7.069,2.911.2.734-.859,2.4c0,0-10.175-2.973-10.212-3.6s4.232-12.718,5.627-13.356a58.834,58.834,0,0,1,7.325-2.128Z"
          transform="translate(-1442.049 -191.912)"
          fill="#f54242"
        />
        <path
          id="Path_3474"
          data-name="Path 3474"
          d="M1767.27,767.1s.507.067.869.123,1.077-.4,1.8-.292l-.221.917S1767.32,767.4,1767.27,767.1Z"
          transform="translate(-1565.559 -680.886)"
          fill="#353a3d"
        />
        <path
          id="Path_3475"
          data-name="Path 3475"
          d="M1731.429,184.075c-.031,1.611-3.728,3.307-3.728,3.307s-.9-3.01-.588-3.167c.123-.062.162-.1.176-.374a5.8,5.8,0,0,0-.017-.73c-.01-.115-.018-.188-.018-.188s.446-.47,1.012-1.031c.991-.978,2.406-2.429,2.406-1.929,0,.026.038.04.031.077C1730.467,181.164,1731.429,184.075,1731.429,184.075Z"
          transform="translate(-1529.944 -161.092)"
          fill="#eea886"
        />
        <path
          id="Path_3476"
          data-name="Path 3476"
          d="M1729.382,193h0a5.767,5.767,0,0,1-.364.492,6.511,6.511,0,0,1-2.39,1.988,5.825,5.825,0,0,0-.017-.73,1.581,1.581,0,0,1-.31-.038,9.458,9.458,0,0,1,.678-.992l.625-.188Z"
          transform="translate(-1529.283 -172.725)"
          fill="#a77860"
        />
        <path
          id="Path_3477"
          data-name="Path 3477"
          d="M1713.736,140.845c-.27.587-.526,1.013-.6,1.181h0a2.084,2.084,0,0,1-.364.492,3.607,3.607,0,0,1-2.406,1.26,1.586,1.586,0,0,1-.311-.038,1.471,1.471,0,0,1-1.072-.741,8.422,8.422,0,0,1-.537-6.923s5.32-1.5,6.151.1C1715.176,137.294,1714.374,139.467,1713.736,140.845Z"
          transform="translate(-1513.038 -121.756)"
          fill="#eea886"
        />
        <path
          id="Path_3478"
          data-name="Path 3478"
          d="M1707.418,115.629s-.494-.028-.616-.965,1.075-1.562,1.075-1.562a6.759,6.759,0,0,1,2.034-.659c.789-.115,2.727-.229,3.182.285,0,0,1.1-.257,1.406,1.577.476,2.909-1.627,5.729-1.627,5.729s.018-1.9-.4-2.152-.78.344-.78.344l-.858.154s1.216-2.349-.344-2.453A25.025,25.025,0,0,1,1707.418,115.629Z"
          transform="translate(-1512.011 -101.312)"
          fill="#223247"
        />
        <path
          id="Path_3479"
          data-name="Path 3479"
          d="M1749.511,150.939c.081-.836,1.595-1.156,1.489-.278s-.847,1.719-1.191,1.69S1749.449,151.577,1749.511,150.939Z"
          transform="translate(-1549.81 -134.774)"
          fill="#eea886"
        />
        <path
          id="Path_3480"
          data-name="Path 3480"
          d="M1664.927,279.362l-2.478,12.759-8.189-1.59,2.157-12.821Z"
          transform="translate(-1464.737 -245.892)"
          fill="#616161"
        />
        <path
          id="Path_3481"
          data-name="Path 3481"
          d="M1668.784,286.208l-2.2,11.331-7.273-1.413,1.917-11.386Z"
          transform="translate(-1469.209 -252.117)"
          fill="#e0cec7"
        />
        <path
          id="Path_3482"
          data-name="Path 3482"
          d="M1698.264,285.636l.155-.8-2.94-.571-.269.772Z"
          transform="translate(-1500.996 -251.7)"
          fill="#616161"
        />
        <path
          id="Path_3483"
          data-name="Path 3483"
          d="M1740,359.044s.625-.017.817-.045.065.38-.157.458S1740,359.044,1740,359.044Z"
          transform="translate(-1541.413 -319.705)"
          fill="#c98462"
        />
        <path
          id="Path_3484"
          data-name="Path 3484"
          d="M1719.583,362.011a1.291,1.291,0,0,1-.407.038s-.24-.072-.412-.115a1.27,1.27,0,0,0-.135-.025,2.348,2.348,0,0,1-.738-.124c-.311-.121-1.361-.66-1.361-.66l.3-.977.229-.775a11.059,11.059,0,0,1,2.078-.393c.029.008.058.017.085.027a2.884,2.884,0,0,1,.52.329c.046.023.486.288.509.439a.5.5,0,0,1-.14.466,1.168,1.168,0,0,1-.115.65.745.745,0,0,1-.221.62S1719.792,361.906,1719.583,362.011Z"
          transform="translate(-1520.633 -319.681)"
          fill="#eea886"
        />
        <path
          id="Path_3485"
          data-name="Path 3485"
          d="M1652.16,270.7a7.465,7.465,0,0,1-1.279,2.932s-7.053-2.864-7.942-3.217,3.233-11.308,3.233-11.308l3.034,1.031-1.629,3.081s-.807,1.727-2.486,4.567C1645.091,267.792,1646.124,268.774,1652.16,270.7Z"
          transform="translate(-1455.362 -231.261)"
          fill="#f54242"
        />
        <path
          id="Path_3486"
          data-name="Path 3486"
          d="M1761.084,276.48s-.186,3.413,1.522,3.413,1.551-3.072,1.582-3.413Z"
          transform="translate(-1560.077 -246.641)"
          fill="#f54242"
        />
        <path
          id="Path_3487"
          data-name="Path 3487"
          d="M1757.15,256.438h2.549v-.518Z"
          transform="translate(-1555.839 -226.599)"
          fill="#fff"
        />
        <path
          id="Path_3488"
          data-name="Path 3488"
          d="M1272.448,383.185s-.775.5-1.221.221a2.96,2.96,0,0,0-1.244-.282c-.273-.014-1.093-.368-1.115-.025s1.325.651,1.594.771-.917.7-1.049.976.937,2.186,1.7,1.695,1.26-1.524,1.415-1.583a5.558,5.558,0,0,0,.573-.336Z"
          transform="translate(-1124.26 -340.913)"
          fill="#eea886"
        />
        <path
          id="Path_3489"
          data-name="Path 3489"
          d="M1474.438,759.366a31.156,31.156,0,0,1-2.341,3.076s-1.211.629-1.248,1.131c-.071.949-.157,1.833,1.437,1.879s2.623-.331,2.914-1.3a5.849,5.849,0,0,1,.988-1.8v2.02h.359s.089-1.948.115-2.311.258-1.739-.5-2.35A2.111,2.111,0,0,0,1474.438,759.366Z"
          transform="translate(-1303.073 -674.154)"
          fill="#162d40"
        />
        <path
          id="Path_3490"
          data-name="Path 3490"
          d="M1480,757.488a4.017,4.017,0,0,0,1.885-.015c1.024-.258,2.009-2.71,2.307-2.915l.266-.989h-2a4.234,4.234,0,0,1-.392,1.351A25.332,25.332,0,0,1,1480,757.488Z"
          transform="translate(-1311.202 -669.069)"
          fill="#eea886"
        />
        <path
          id="Path_3491"
          data-name="Path 3491"
          d="M1365.87,747.631a6.437,6.437,0,0,1-.751,1.26c-.361.47-1.48,2.4-1.974,2.534s-2.02.4-2.154,1.26-.2,1.458,1.3,1.525,2.49.157,3.208-.9a7.832,7.832,0,0,1,1.862-1.817v2.75h.583a24.914,24.914,0,0,1,.426-3.065,3.459,3.459,0,0,0-.829-3.545C1366.151,746.5,1365.87,747.631,1365.87,747.631Z"
          transform="translate(-1205.771 -663.366)"
          fill="#162d40"
        />
        <path
          id="Path_3492"
          data-name="Path 3492"
          d="M1380.29,752.956s1.346.337,1.862,0,2.27-3.3,2.852-3.478c0,0-.564-1.146-1.988-.313C1383.016,749.165,1380.672,752.462,1380.29,752.956Z"
          transform="translate(-1222.917 -664.9)"
          fill="#eea886"
        />
        <path
          id="Path_3493"
          data-name="Path 3493"
          d="M1463.852,385.751a14.077,14.077,0,0,1,2.413,5.4c.514,2.927-.3,12.754-.282,14.207s1.34,6.062,1.071,8.788-1.743,13.99-1.743,13.99l-3.288-.058s.659-12.278.491-13.421-.7-6.013-.77-6.484S1458,395.233,1458,393.123,1459.276,382.307,1463.852,385.751Z"
          transform="translate(-1291.723 -342.687)"
          fill="#1d3b54"
        />
        <path
          id="Path_3494"
          data-name="Path 3494"
          d="M1390.568,395.555s-3.119,11.9-3.489,13.551-1.11,3.8-1.077,4.105.393,5.385.393,5.385l.887,17.3h3.286s1.055-11,1.222-13.225-1.211-5.653-.874-6.6,5.418-11.811,5.418-11.811S1400.181,392.1,1390.568,395.555Z"
          transform="translate(-1227.973 -351.525)"
          fill="#1d3b54"
        />
        <path
          id="Path_3495"
          data-name="Path 3495"
          d="M1304.211,244.85a4.235,4.235,0,0,0-2.6,1.077,10.672,10.672,0,0,0-1.66,3.208c-.246.538-3.365,5.519-3.545,5.631s-3.348,2.67-4.785,4.039a25.223,25.223,0,0,1-4.239,2.894l1.054,1.48s8.5-4.531,9.579-6.187a74.159,74.159,0,0,1,5.5-6.17S1307.043,246.69,1304.211,244.85Z"
          transform="translate(-1140.651 -218.635)"
          fill="#eea886"
        />
        <path
          id="Path_3496"
          data-name="Path 3496"
          d="M1310.054,244.85a4.234,4.234,0,0,0-2.6,1.077,10.661,10.661,0,0,0-1.66,3.208c-.246.538-3.365,5.519-3.545,5.631a39.849,39.849,0,0,0-4.211,3.264,30.576,30.576,0,0,1-4.056,2.979l1.532,1.948s7.286-4.043,8.478-5.626c1.27-1.689,5.373-6.517,5.373-6.517S1312.887,246.69,1310.054,244.85Z"
          transform="translate(-1146.495 -218.635)"
          fill="#285173"
        />
        <path
          id="Path_3497"
          data-name="Path 3497"
          d="M1411.2,236.566a16.759,16.759,0,0,1-2.177.874c-.562.111-2.737,2.939-3.119,3.971s0,2.58.786,4.4.045,2.423.4,4.239a42.266,42.266,0,0,1,.606,6.674c-.067,1.009,9.074,1.2,11.161-.639,0,0-2.1-3.14-2.366-3.59a8.285,8.285,0,0,1,.2-3.522c.248-.628,3.028-5.317,3.028-5.317s.205-4.755-1.009-5.7c-1.054-.819-3.927-1.111-4.444-1.29A8.835,8.835,0,0,0,1411.2,236.566Z"
          transform="translate(-1245.466 -211.225)"
          fill="#eddad3"
        />
        <path
          id="Path_3498"
          data-name="Path 3498"
          d="M1441.191,236.412l-.981-1.146.851-3.026A19.911,19.911,0,0,1,1441.191,236.412Z"
          transform="translate(-1275.971 -207.469)"
          fill="#d6c5be"
        />
        <path
          id="Path_3499"
          data-name="Path 3499"
          d="M1257.034,398.08a20.354,20.354,0,0,0-2.308,1.9c-.057.236.04.353.257.206s2.216-1.539,2.216-1.539-2.334,2.413-2.423,2.6c-.051.108.123.344.246.276s2.572-2.327,2.572-2.327-2.177,2.257-2.2,2.432a.216.216,0,0,0,.362.175c.173-.157,2.31-2.138,2.31-2.138a12.737,12.737,0,0,0-1.416,1.905c.039.1.18.312.547-.15s1.35-1.459,1.35-1.459Z"
          transform="translate(-1111.724 -354.309)"
          fill="#eea886"
        />
        <path
          id="Path_3500"
          data-name="Path 3500"
          d="M1428.714,134.951c-.96-.338-4.487-1.166-5.318,3.342s1.66,7.718,3.948,6.865,3.7-3.971,3.837-6.348A3.555,3.555,0,0,0,1428.714,134.951Z"
          transform="translate(-1260.939 -121.074)"
          fill="#eea886"
        />
        <path
          id="Path_3501"
          data-name="Path 3501"
          d="M1424.651,135.44s-.173-3.858,3.666-3.993,4.868,3.024,4.553,5.325a5.632,5.632,0,0,1-1.9,3.516s.139-1.862-.606-2.345-3.725-1.448-5.032-3.687A3.4,3.4,0,0,0,1424.651,135.44Z"
          transform="translate(-1262.194 -118.221)"
          fill="#252e3b"
        />
        <path
          id="Path_3502"
          data-name="Path 3502"
          d="M1465.119,134.208a2.583,2.583,0,1,0,1.517-3.583A2.762,2.762,0,0,0,1465.119,134.208Z"
          transform="translate(-1297.878 -117.396)"
          fill="#252e3b"
        />
        <path
          id="Path_3503"
          data-name="Path 3503"
          d="M1497.99,244.323a2.82,2.82,0,0,1,3.208,1.66c1.172,2.243.875,3.456,1.146,4.468s1.346,7.762,1.414,8.054,1.1,3.724.965,4.778-1.1,9.041-1.055,9.31-1.862-.258-1.862-.258.079-8.154.011-8.828-.135-4.206-.639-5.115-1.749-6.462-2.019-7.034S1496.274,245.052,1497.99,244.323Z"
          transform="translate(-1326.619 -218.107)"
          fill="#eea886"
        />
        <path
          id="Path_3504"
          data-name="Path 3504"
          d="M1446.55,203.9a38.468,38.468,0,0,1,.254,3.928s1.679,1.682,3.587-1.963a5.017,5.017,0,0,1-.2-3.552C1450.8,200.264,1446.55,203.9,1446.55,203.9Z"
          transform="translate(-1281.585 -180.416)"
          fill="#eea886"
        />
        <path
          id="Path_3505"
          data-name="Path 3505"
          d="M1515.9,504.7v-2.75a.8.8,0,0,1,.8-.8h4.354a.8.8,0,0,1,.8.8v2.75a.8.8,0,0,1-.8.8H1516.7A.8.8,0,0,1,1515.9,504.7Zm.8-3.011a.265.265,0,0,0-.265.265v2.75a.265.265,0,0,0,.265.265h4.354a.265.265,0,0,0,.264-.265v-2.75a.265.265,0,0,0-.264-.265Z"
          transform="translate(-1342.99 -445.57)"
          fill="#0e1e2b"
        />
        <path
          id="Path_3506"
          data-name="Path 3506"
          d="M1529.558,481.007a1.554,1.554,0,0,0,.2-.458s.007-.3.024-.521a1.462,1.462,0,0,1,.021-.166,2.846,2.846,0,0,0,.134-.905,19.335,19.335,0,0,0-.573-2.129l-1.016.036-.957-.1a19.381,19.381,0,0,0-1.177,2.586v.109a3.662,3.662,0,0,0,.186.729c.01.062.152.673.32.756a.609.609,0,0,0,.594.014,1.451,1.451,0,0,0,.8.115.908.908,0,0,0,.8-.023C1528.9,481.047,1529.355,481.208,1529.558,481.007Z"
          transform="translate(-1352.118 -423.974)"
          fill="#eea886"
        />
        <path
          id="Path_3507"
          data-name="Path 3507"
          d="M1442.14,239.19v1.538l1.932-1.444Z"
          transform="translate(-1276.921 -211.785)"
          fill="#eea886"
        />
        <path
          id="Path_3508"
          data-name="Path 3508"
          d="M1442.14,224.126l.8-.993,2.7-2.692.874.842Z"
          transform="translate(-1276.921 -195.184)"
          fill="#d6c5be"
        />
        <path
          id="Path_3509"
          data-name="Path 3509"
          d="M1464.2,238.73s-2.266,3.437-2.375,4.955a137.305,137.305,0,0,0,1.6,16.482c.761,3.641,6.264-.41,6.264-.41s-3.7-5.984-2.278-10.777,2.214-7.973,2.214-7.973a4.152,4.152,0,0,0-2.5-1.778C1465.592,238.993,1464.2,238.73,1464.2,238.73Z"
          transform="translate(-1295.101 -213.216)"
          fill="#285173"
        />
        <path
          id="Path_3510"
          data-name="Path 3510"
          d="M1404.07,246.589a25.5,25.5,0,0,0,1.061,5.14s.292,3.634.246,4.914-.344,6.112-.344,6.112l1.575.923a.445.445,0,0,0,.666-.438c-.446-3.68-1.9-17.638,1.238-21.391l-1.26.371S1404.661,244.636,1404.07,246.589Z"
          transform="translate(-1243.972 -215.978)"
          fill="#285173"
        />
        <path
          id="Path_3511"
          data-name="Path 3511"
          d="M1468.282,178.323a.59.59,0,0,1,.874-.251c.269.2.426.8,0,1.593S1467.227,181,1468.282,178.323Z"
          transform="translate(-1300.501 -159.417)"
          fill="#eea886"
        />
        <path
          id="Path_3512"
          data-name="Path 3512"
          d="M1424.017,219.186l-1.237.343,2.09-3.368Z"
          transform="translate(-1259.779 -191.394)"
          fill="#fae6de"
        />
        <path
          id="Path_3513"
          data-name="Path 3513"
          d="M1449.15,223.132l1.128,1.481,2.318-3.848-.746-.325Z"
          transform="translate(-1283.127 -195.184)"
          fill="#fae6de"
        />
        <path
          id="Path_3514"
          data-name="Path 3514"
          d="M1497.677,244.323a2.82,2.82,0,0,1,3.208,1.66,10.157,10.157,0,0,1,1.318,4.3c.147,1.031,1.57,7.179,1.636,7.471s.536,4.133.573,5.529c.024,1.063-.229,8.031-.18,8.3s-3.222-.471-3.222-.471.361-6.427.294-7.1a37.266,37.266,0,0,0-.54-5.015c-.386-1.158-1.912-6.989-2.177-7.562S1495.961,245.052,1497.677,244.323Z"
          transform="translate(-1326.305 -218.107)"
          fill="#285173"
        />
        <path
          id="Path_3515"
          data-name="Path 3515"
          d="M1447.13,216.705l.059.583s1.33.261,3.076-1.869A3.787,3.787,0,0,1,1447.13,216.705Z"
          transform="translate(-1282.098 -192.576)"
          fill="#a77860"
        />
        <rect
          id="Rectangle_1898"
          data-name="Rectangle 1898"
          width="16.344"
          height="11.71"
          transform="translate(184.064 70.467) rotate(180)"
          fill="#54281a"
        />
        <rect
          id="Rectangle_1899"
          data-name="Rectangle 1899"
          width="16.344"
          height="6.787"
          transform="translate(184.064 65.544) rotate(180)"
          fill="#873f2b"
        />
        <path
          id="Path_3516"
          data-name="Path 3516"
          d="M1404.381,288.942a8.164,8.164,0,0,1,.229-4.452,6,6,0,0,0,.246,3.877Z"
          transform="translate(-1244.062 -253.733)"
          fill="#1d3b54"
        />
        <path
          id="Path_3517"
          data-name="Path 3517"
          d="M1505.866,290.562s-1.079-3.749-1.146-3.952a35.825,35.825,0,0,0,.6,5.05A5.633,5.633,0,0,1,1505.866,290.562Z"
          transform="translate(-1333.09 -255.61)"
          fill="#1d3b54"
        />
        <rect
          id="Rectangle_1900"
          data-name="Rectangle 1900"
          width="40.08"
          height="93.031"
          rx="20.04"
          transform="translate(140.445 93.864) rotate(180)"
          fill="#587aa3"
        />
        <rect
          id="Rectangle_1901"
          data-name="Rectangle 1901"
          width="47.355"
          height="94.579"
          rx="8"
          transform="translate(146.113 94.579) rotate(180)"
          fill="url(#linear-gradient)"
        />
        <path
          id="Path_3518"
          data-name="Path 3518"
          d="M1101.13,300.05l1.733,2.731,1.6,2.521c0-.014-.115-.4-.291-1.5-.034-.211-.071-.446-.115-.71a1.814,1.814,0,0,0-.05-.229h0a7.507,7.507,0,0,0-2.879-2.809Z"
          transform="translate(-975.741 -267.51)"
          fill="#eddad3"
        />
        <path
          id="Path_3519"
          data-name="Path 3519"
          d="M1104.022,302.84h0a3.623,3.623,0,0,1,.167.962l-.627-.946s-1.119-1.6-1.5-2.022a6.278,6.278,0,0,0-.91-.784A6.384,6.384,0,0,1,1104.022,302.84Z"
          transform="translate(-975.758 -267.51)"
          fill="#ffca55"
        />
        <path
          id="Path_3520"
          data-name="Path 3520"
          d="M940.444,27.425v84.784a4.268,4.268,0,0,1-4.4,4.125H902.108a4.268,4.268,0,0,1-4.4-4.125V27.425a4.268,4.268,0,0,1,4.4-4.125h33.94A4.268,4.268,0,0,1,940.444,27.425Z"
          transform="translate(-795.627 -22.468)"
          fill="#6bb0ff"
          opacity="0.73"
        />
        <path
          id="Path_3521"
          data-name="Path 3521"
          d="M995.542,752.152a6.388,6.388,0,0,0,1.775,2.612c1.111.779,2.259,1.887,1.957,2.665s-4.01.366-5.568-1.89c-.981-1.425-1.977-1.744-1.975-2.419s1.146-2.024,1.2-2.216C993,750.663,995.542,752.152,995.542,752.152Z"
          transform="translate(-878.875 -666.686)"
          fill="#353a3d"
        />
        <path
          id="Path_3522"
          data-name="Path 3522"
          d="M1004.952,745.393a6.882,6.882,0,0,1-.275.664c-.029,0-2.864-.756-2.611-1.248a4.5,4.5,0,0,1,.592-.81Z"
          transform="translate(-888.013 -660.596)"
          fill="#81807e"
        />
        <path
          id="Path_3523"
          data-name="Path 3523"
          d="M964.52,471.014s.82-1.948,1.456-2.069.115.386.115.386-.808,1.337-1.079,1.9A3.084,3.084,0,0,1,964.52,471.014Z"
          transform="translate(-854.782 -417.038)"
          fill="#434343"
        />
        <path
          id="Path_3524"
          data-name="Path 3524"
          d="M974.306,441.18a15.365,15.365,0,0,0-.2,1.9c-.034.956.115,1.318-.165,1.771-.214.344-.733.473-.8.316s.4-1.62-.2-1.825-.458,1.853-.765,1.595-1.415-1.489-1.071-2.193,1.08-1.031,1.431-2.13a2.482,2.482,0,0,1,.771-1.3Z"
          transform="translate(-860.546 -390.815)"
          fill="#eea886"
        />
        <path
          id="Path_3525"
          data-name="Path 3525"
          d="M979.657,473.744s.725.486-.277,3.166l-.85-.47a9.917,9.917,0,0,0,.564-2.392S979.326,473.536,979.657,473.744Z"
          transform="translate(-867.187 -421.26)"
          fill="#545554"
        />
        <path
          id="Path_3526"
          data-name="Path 3526"
          d="M927.361,464.287l-6.323-4.487-3.048,8.666,5.51,6.673Z"
          transform="translate(-812.824 -407.119)"
          fill="#545554"
        />
        <path
          id="Path_3527"
          data-name="Path 3527"
          d="M1035.128,464.437v17.012c-1.741-5.284-5.545-16.709-6.462-18.579-.8-1.636-8.034-11.077-8.565-10.4a74.015,74.015,0,0,0-3.9,10.541c-.4,1.948-9.262,16.4-9.262,16.4s-.156-.032-.394-.1a4.915,4.915,0,0,1-2.406-1.4,1.871,1.871,0,0,1-.183-.284s6.517-14.147,7.131-16.824c.215-.935.458-5.5,1.315-10.27a39.762,39.762,0,0,1,1.581-6.224c.271-.747,1.059-1.059,2.113-1.091.179-.009.367,0,.559,0,.321.018.66.055,1.013.105a20.7,20.7,0,0,1,2.521.573c.724.211,1.448.444,2.122.687.784.28,1.508.564,2.108.8.2.078.38.156.55.229.188.078.353.151.495.211.376.165.6.266.6.266s1.146,2.03,2.557,4.61c1.948,3.552,4.418,8.121,5.174,9.881A33.224,33.224,0,0,1,1035.128,464.437Z"
          transform="translate(-889.704 -394.272)"
          fill="#353a3d"
        />
        <path
          id="Path_3528"
          data-name="Path 3528"
          d="M1011.329,264.4l2.682,2.994v4.954c-1.916-1.819-4.17-4.143-5.009-4.881a1.507,1.507,0,0,0-.3-.229,2.4,2.4,0,0,1-.6-.793c-.073-.124-.156-.266-.238-.412-.124-.229-.252-.467-.385-.724-.087-.17-.179-.344-.271-.522s-.179-.362-.27-.541c-.179-.362-.358-.724-.518-1.063-.124-.257-.238-.5-.344-.719-.069-.151-.137-.289-.2-.417s-.115-.243-.16-.344c-.115-.247-.188-.408-.206-.445a12.113,12.113,0,0,1-.023,2.122,10.32,10.32,0,0,1-.275,1.595,12.341,12.341,0,0,0-.284,2.47v.119c-.046,1.687.069,3.506.115,4.468a3.536,3.536,0,0,1-.435,2.2l-.193-.027-.33-.046-.376-.05-.509-.073-1.975-.275-.719-.1-.165-.023-1.257-.18-2.521-.353-1.008-.142-.545-.078-1.329-.188-.6-.087h-.009s-.513-3.625-.55-5.582a35.716,35.716,0,0,0-1.164-6.063.136.136,0,0,1-.009-.037h0v-.009s-2.883,3.029-3.437,4.354c-.137.325-.5,1.1-.994,2.09-.009.023-.018.046-.028.064a66.318,66.318,0,0,1-4.354,7.878c-.1.128-.188.2-.247.211a.469.469,0,0,1-.083.009c-.527,0-1.411-.729-1.847-1.123-.16-.142-.257-.238-.257-.238s.037-.087.115-.243c.614-1.407,3.726-8.478,4.51-10.147.073-.156.128-.266.156-.316a.681.681,0,0,0,.046-.087c.587-1.132,4.574-9.8,5.183-10.234a3.37,3.37,0,0,1,.321-.188,1.219,1.219,0,0,0,.156-.078.073.073,0,0,0,.023-.009l.326-.151.115-.055c.083-.037.165-.073.252-.115.481-.211,1.049-.449,1.6-.674.156-.064.307-.124.449-.179.215-.087.426-.165.619-.238l.073-.027a9.344,9.344,0,0,1,1.238-.422h.083a1.087,1.087,0,0,1,.16.009c.8.046,3.176.266,3.941.344l.243.023s.367.17.917.417h0l.046.018,1.1.5c.834.385,1.778.825,2.521,1.178.715.344,1.8.926,1.879.99Z"
          transform="translate(-868.586 -224.08)"
          fill="#decbc4"
        />
        <path
          id="Path_3529"
          data-name="Path 3529"
          d="M1103.236,441.239a3.285,3.285,0,0,1,.344,1.664s-10.92-1.274-12.075-1.776c0,0-.045-1.482.2-1.509C1091.973,439.59,1103.236,441.239,1103.236,441.239Z"
          transform="translate(-967.216 -391.087)"
          fill="#495055"
        />
        <path
          id="Path_3530"
          data-name="Path 3530"
          d="M1112.64,217.412c.034,1.719,3.352,2.651,3.352,2.651s1.389-1.74,1.056-1.906c-.129-.065-.183-.325-.2-.616a6.129,6.129,0,0,1,.02-.778c.009-.121.019-.2.019-.2s-.474-.5-1.078-1.1c-1.054-1.043-2.5-2.377-2.5-1.847a.438.438,0,0,0,.011.1C1113.573,214.916,1112.64,217.412,1112.64,217.412Z"
          transform="translate(-985.932 -190.877)"
          fill="#eea886"
        />
        <path
          id="Path_3531"
          data-name="Path 3531"
          d="M1109.094,441.433s-.238,1.5-.259,1.894l-.505-.1s.14-1.591.221-1.857Z"
          transform="translate(-982.116 -392.639)"
          fill="#5d676c"
        />
        <path
          id="Path_3532"
          data-name="Path 3532"
          d="M1182.069,451.691s.191,1.367.2,1.882l-.534-.07s-.115-1.706-.171-1.884Z"
          transform="translate(-1046.955 -401.714)"
          fill="#353a3d"
        />
        <path
          id="Path_3533"
          data-name="Path 3533"
          d="M1123.8,225.72h0c.007.01.147.221.387.524a6.954,6.954,0,0,0,2.544,2.116,6.083,6.083,0,0,1,.019-.778,1.679,1.679,0,0,0,.329-.039,10.152,10.152,0,0,0-.72-1.056l-.667-.2Z"
          transform="translate(-995.813 -201.696)"
          fill="#a77860"
        />
        <path
          id="Path_3534"
          data-name="Path 3534"
          d="M1109.519,170.273c.287.624.559,1.077.637,1.26h0a2.228,2.228,0,0,0,.387.524,3.826,3.826,0,0,0,2.563,1.338,1.683,1.683,0,0,0,.329-.039,1.579,1.579,0,0,0,1.146-.789,8.977,8.977,0,0,0,.573-7.367s-5.661-1.6-6.547.1C1107.982,166.493,1108.844,168.811,1109.519,170.273Z"
          transform="translate(-982.169 -147.505)"
          fill="#eea886"
        />
        <path
          id="Path_3535"
          data-name="Path 3535"
          d="M1108.626,143.351s.526-.03.655-1.031-.131-1.26-.131-1.26a23.388,23.388,0,0,0-3.177-1.106c-.84-.127-2.9-.25-3.386.3,0,0-1.176-.273-1.489,1.677-.509,3.093,1.73,6.1,1.73,6.1s-.018-2.022.427-2.291.83.369.83.369l.917.164s-1.4-2.977.266-3.091S1107.675,143.53,1108.626,143.351Z"
          transform="translate(-975.646 -125.661)"
          fill="#e2d2ca"
        />
        <path
          id="Path_3536"
          data-name="Path 3536"
          d="M1115.168,181c-.087-.891-1.7-1.232-1.589-.3s.9,1.833,1.267,1.8S1115.235,181.68,1115.168,181Z"
          transform="translate(-986.759 -161.345)"
          fill="#eea886"
        />
        <path
          id="Path_3537"
          data-name="Path 3537"
          d="M987.809,268.411c-.633,1.287-4.583,9.894-5.27,10.023S980,276.966,980,276.966s4.407-9.716,4.777-10.369,4.6-9.872,5.227-10.322a26.488,26.488,0,0,1,3.247-1.447c.242-.1.474-.187.688-.268.279.312,4.776,5.393,4.354,9.9-.127,1.353-.3,3.561-.671,5.884-.389,2.415-1.014,5.146-1.419,7.206a38.3,38.3,0,0,1-2.34,7.279l-4.21-2.108a1.466,1.466,0,0,1-.725-1.8c.948-2.652,2.839-8.011,2.84-10.338a52.981,52.981,0,0,0-.512-6.508A27.639,27.639,0,0,0,987.809,268.411Z"
          transform="translate(-868.489 -227.232)"
          fill="#3c4145"
        />
        <path
          id="Path_3538"
          data-name="Path 3538"
          d="M1172.724,273.54v5.224c-1.875-1.833-4.166-4.28-5.009-5.05a1.508,1.508,0,0,0-.3-.229,2.4,2.4,0,0,1-.6-.793c-.078-.124-.156-.266-.238-.412-.124-.229-.252-.467-.385-.724-.087-.169-.179-.344-.271-.522s-.179-.362-.271-.541c-.179-.362-.357-.724-.518-1.063-.124-.257-.243-.5-.344-.72-.069-.151-.138-.289-.2-.417s-.115-.243-.16-.344c-.115-.247-.188-.408-.206-.445a5.187,5.187,0,0,1-.023,2.122,15.742,15.742,0,0,0-.559,4.065v.028a67.839,67.839,0,0,0,2.731,12.3.776.776,0,0,1-.151.733.444.444,0,0,1-.073.087l-1.311,1.21s-1.136-3.5-1.718-5.971c-.014-.069-.032-.138-.046-.2a13.336,13.336,0,0,1-.27-1.471h0c-.105-.981-.316-2.126-.545-3.346s-.458-2.521-.6-3.795c-.367-3.245-.743-6.462-1.013-8.35-.087-.614-.174-1.182-.257-1.7a43.629,43.629,0,0,0-1.031-5.137l.028-.023,1.1.5c.834.385,1.778.825,2.521,1.178.715.344,1.8.926,1.879.99l5.156,9.936Z"
          transform="translate(-1027.299 -230.322)"
          fill="#3c4145"
        />
        <path
          id="Path_3539"
          data-name="Path 3539"
          d="M1097.27,258.813l1.615.911-.687.7,1.833,9.915c.374-2.324.544-4.531.671-5.884.422-4.5-4.074-9.586-4.354-9.9-.217.081-.449.172-.688.268Z"
          transform="translate(-970.897 -227.232)"
          fill="#51565c"
        />
        <path
          id="Path_3540"
          data-name="Path 3540"
          d="M1159.1,257.78a52.243,52.243,0,0,1,1.307,6.887c.269,1.889.647,5.1,1.01,8.349l.376-9.286-.769-.833.687-.855-1.462-3.735c-.4-.186-.776-.357-1.094-.5Z"
          transform="translate(-1027.069 -230.083)"
          fill="#51565c"
        />
        <path
          id="Path_3541"
          data-name="Path 3541"
          d="M1030.154,256.9c-1.319.519-3.281,1.195-3.643,1.455-.629.45-4.46,9.661-4.831,10.312Z"
          transform="translate(-905.393 -229.304)"
          fill="#3c4145"
        />
        <path
          id="Path_3542"
          data-name="Path 3542"
          d="M917.833,473.846l-.938-.15-5.3-6.644,3.183-8.712.6.167Z"
          transform="translate(-807.157 -405.827)"
          fill="#545554"
        />
        <path
          id="Path_3543"
          data-name="Path 3543"
          d="M1101,248.452l1.338-.812s.038.734,3.352,2.651l-.942,2.651Z"
          transform="translate(-975.625 -221.105)"
          fill="#f5e2d9"
        />
        <path
          id="Path_3544"
          data-name="Path 3544"
          d="M1142.782,250.87a6.248,6.248,0,0,1-.882,2.281l1.833,2.395.133-3.884Z"
          transform="translate(-1011.839 -223.965)"
          fill="#f5e2d9"
        />
        <path
          id="Path_3545"
          data-name="Path 3545"
          d="M1139.877,270.78a6.284,6.284,0,0,0-.229,1.823,1.736,1.736,0,0,0,1.345-.071A6.269,6.269,0,0,0,1139.877,270.78Z"
          transform="translate(-1009.821 -241.594)"
          fill="#464157"
        />
        <path
          id="Path_3546"
          data-name="Path 3546"
          d="M1156.61,418.034a26.68,26.68,0,0,0,0-4.144l-.169.011a27.779,27.779,0,0,1,0,4.1Z"
          transform="translate(-1024.714 -368.307)"
          fill="#ad9f99"
        />
        <path
          id="Path_3547"
          data-name="Path 3547"
          d="M1145.476,446s1.6.193,2.139.324l-.07,1.8-2.1-.229Z"
          transform="translate(-1014.974 -396.738)"
          fill="#69737a"
        />
        <path
          id="Path_3548"
          data-name="Path 3548"
          d="M1139.576,283.495a36.235,36.235,0,0,1,1.782,9.521c.2,5.07-.337,6.381-.337,6.381l-1.979,1.782-.662-2.316a30.143,30.143,0,0,0,.83-12.145c-.173-1.18-.431-3.418-.431-3.418Z"
          transform="translate(-1008.723 -252.679)"
          fill="#464157"
        />
        <rect
          id="Rectangle_1902"
          data-name="Rectangle 1902"
          width="42.734"
          height="93.033"
          rx="8"
          transform="translate(102.107 0.831)"
          fill="#a3cdff"
          opacity="0.4"
        />
        <path
          id="Path_3549"
          data-name="Path 3549"
          d="M1293.374,433.9s.644.937.981.968a7.044,7.044,0,0,1,1.107.418c.294.086,1.193.037,1.454.229.106.081.561.834.8.974s.75.365.619.566-.651.125-.651.125a.344.344,0,0,1,.144.351c-.115.41-.384.458-.384.458s.115.282.022.44a.752.752,0,0,1-.458.394.687.687,0,0,1-.189.432.629.629,0,0,1-.581.174s-.229.393-.479.355a2.159,2.159,0,0,1-.6-.28,7.861,7.861,0,0,1-2.117-2.521,5.823,5.823,0,0,0-1.508-1.948Z"
          transform="translate(-1144.335 -386.025)"
          fill="#eea886"
        />
        <path
          id="Path_3550"
          data-name="Path 3550"
          d="M1318.611,454.042s-1.178-1.018-1.705-.927-.122.482-.122.482-.393-.394-.746-.115.144.714.144.714a.451.451,0,0,0-.622.184c-.242.4.256.667.256.667s-.711-.009-.506.532a2.316,2.316,0,0,0,1.455,1.217s.273.047.479-.355a.623.623,0,0,0,.77-.606s.745-.266.441-.834A.539.539,0,0,0,1318.611,454.042Z"
          transform="translate(-1165.348 -403.033)"
          fill="#db9c7c"
        />
        <path
          id="Path_3551"
          data-name="Path 3551"
          d="M1288.943,803.1a6.67,6.67,0,0,0,3.031,1.375c1.428.085,3.07.458,3.224,1.328s-4.335,1.967-6.054,1.351c-2.564-.917-2.737-.486-3.106-1.1s-.082-2.45-.133-2.655C1285.843,803.155,1288.943,803.1,1288.943,803.1Z"
          transform="translate(-1139.294 -712.925)"
          fill="#353a3d"
        />
        <path
          id="Path_3552"
          data-name="Path 3552"
          d="M1289.126,797a6.37,6.37,0,0,1,.272.7c-.024.02-3.036.893-3.037.308,0-.473.024-.992.024-.992Z"
          transform="translate(-1139.748 -707.523)"
          fill="#81807e"
        />
        <path
          id="Path_3553"
          data-name="Path 3553"
          d="M1148.583,485.1c.036.179-.165.293-.486.362a13.181,13.181,0,0,1-2.9.064l-.325-.023s-6.141-18.808-7.342-21.255c-.8-1.636-8.034-11.077-8.565-10.4a30,30,0,0,1-1.865-7.388c-.073-.541-.133-1.1-.183-1.686a21.253,21.253,0,0,1,2.149.5c.724.211,1.448.445,2.122.687.784.28,1.508.564,2.108.8.2.078.38.156.55.229.188.078.353.151.5.211.376.165.6.266.6.266s1.146,2.03,2.557,4.61c1.948,3.552,4.418,8.121,5.174,9.881a43.3,43.3,0,0,1,2.625,9.862C1145.507,474.311,1148.436,484.371,1148.583,485.1Z"
          transform="translate(-998.576 -395.649)"
          fill="#353a3d"
        />
        <path
          id="Path_3554"
          data-name="Path 3554"
          d="M1147.915,274.071s-.056.064-.147.174c-.316.371-1.082,1.251-1.567,1.719a.405.405,0,0,0-.046.041c-.055.05-.165.028-.325-.055-1.389-.72-6.37-5.981-7.718-7.163-.092-.078-.17-.142-.229-.183a.074.074,0,0,0-.032-.018.175.175,0,0,0-.046-.027,2.4,2.4,0,0,1-.6-.793c-.073-.124-.156-.266-.238-.413-.06-.115-.124-.229-.188-.344s-.128-.247-.2-.376c-.087-.17-.179-.344-.27-.522-.316-.623-.637-1.279-.917-1.856-.064-.142-.133-.28-.192-.412-.106-.22-.2-.417-.28-.591-.037-.078-.069-.151-.1-.22s-.046-.1-.069-.147a.978.978,0,0,0-.055-.115c-.041-.092-.069-.156-.082-.183a12.125,12.125,0,0,1-.023,2.122h0a10.26,10.26,0,0,1-.275,1.59,12.35,12.35,0,0,0-.284,2.47v.119c-.046,1.686.069,3.506.115,4.468a3.536,3.536,0,0,1-.435,2.2l-.193-.027c-.083-.014-.2-.028-.33-.046l-.376-.05-.509-.073-1.975-.275-.72-.1-.165-.023-1.247-.189-2.163-.3v-.032c-.036-.44-.064-.894-.082-1.357h0c-.027-.678-.032-1.375-.014-2.1a48.916,48.916,0,0,1,.422-5c.293-2.209.637-4.239.756-6.508a30.264,30.264,0,0,0,0-3.093h0c-.037-.66-.092-1.352-.179-2.076-.009-.073-.018-.147-.032-.22-.064-.513-.142-1.045-.238-1.595.77.069,1.526.138,1.9.174h0l.238.023s.367.17.917.417h0l.046.018,1.1.5c.834.385,1.778.825,2.521,1.178.715.344,1.8.926,1.879.99l5.156,9.936,7.292,8.153Z"
          transform="translate(-997.703 -225.39)"
          fill="#decbc4"
        />
        <path
          id="Path_3555"
          data-name="Path 3555"
          d="M1134.93,446.863l-.55-.064c-.147-.018-.321-.041-.518-.064l-.536-.064c-.614-.078-1.366-.17-2.186-.275-.673-.082-1.388-.174-2.108-.275-.655-.087-1.311-.174-1.939-.266-.073-.541-.133-1.1-.183-1.687a.16.16,0,0,0,0-.046v-.032c.7.1,1.434.2,2.163.307.426.064.848.124,1.26.183.055.009.115.014.165.023.243.037.486.069.715.105.742.105,1.425.206,1.975.284l.509.073c.142.023.266.041.376.055h0c.133.018.248.032.33.046l.193.028A3.414,3.414,0,0,1,1134.93,446.863Z"
          transform="translate(-998.567 -395.047)"
          fill="#495055"
        />
        <path
          id="Path_3556"
          data-name="Path 3556"
          d="M1128.593,224.232h0a7.3,7.3,0,0,1-.8-.284c-.009-.073-.018-.147-.032-.22-.064-.513-.142-1.045-.238-1.595-.073-.426-.156-.862-.252-1.311-.073-.353-.142-.7-.193-1.031h0a1.776,1.776,0,0,1-.156-.188c.046.05.1.1.147.151q-.048-.275-.083-.536h0c-.05-.344-.087-.687-.115-1.008.477.394,1.063.949,1.558,1.439.6.6,1.077,1.1,1.077,1.1s-.009.078-.018.2a6.8,6.8,0,0,0-.018.779,1.858,1.858,0,0,0,.023.238c.027.183.083.33.174.376C1129.978,222.495,1128.593,224.232,1128.593,224.232Z"
          transform="translate(-998.531 -195.047)"
          fill="#eea886"
        />
        <path
          id="Path_3557"
          data-name="Path 3557"
          d="M1182.069,451.691s.191,1.367.2,1.882l-.534-.07s-.115-1.706-.171-1.884Z"
          transform="translate(-1046.955 -401.714)"
          fill="#353a3d"
        />
        <path
          id="Path_3558"
          data-name="Path 3558"
          d="M1129.752,228.719a6.8,6.8,0,0,0-.018.779,6.666,6.666,0,0,1-2.388-1.925h0a1.728,1.728,0,0,1-.156-.188c.046.05.1.1.147.151q-.048-.275-.083-.536l1.439.426.669.2a10.12,10.12,0,0,1,.719,1.054A1.624,1.624,0,0,1,1129.752,228.719Z"
          transform="translate(-998.815 -202.83)"
          fill="#a77860"
        />
        <path
          id="Path_3559"
          data-name="Path 3559"
          d="M1130.208,172.644a1.56,1.56,0,0,1-1.146.788,1.63,1.63,0,0,1-.33.041,3.7,3.7,0,0,1-2.415-1.187q-.048-.275-.083-.536h0c-.05-.344-.087-.687-.115-1.008a16.394,16.394,0,0,1-.069-2.076c0-.275.018-.541.041-.793.018-.27.046-.532.087-.779a10.172,10.172,0,0,1,.651-2.484,20.345,20.345,0,0,1,3.95.674A8.954,8.954,0,0,1,1130.208,172.644Z"
          transform="translate(-997.8 -147.588)"
          fill="#eea886"
        />
        <path
          id="Path_3560"
          data-name="Path 3560"
          d="M1131.813,144.277c-.128.994-.655,1.031-.655,1.031-.953.17-1.7-.28-3.359-.17s-.275,3.1-.275,3.1l-.917-.16h0a1,1,0,0,0-.137-.179c.018-.27.046-.532.087-.779a10.173,10.173,0,0,1,.651-2.484,5.876,5.876,0,0,1,1.833-2.589h0c1.031.3,2.635.976,2.635.976S1131.942,143.292,1131.813,144.277Z"
          transform="translate(-998.177 -127.613)"
          fill="#e2d2ca"
        />
        <path
          id="Path_3561"
          data-name="Path 3561"
          d="M1126.289,187.208a1.073,1.073,0,0,1-.179.614c0-.275.018-.541.041-.793.018-.27.046-.532.087-.779a.587.587,0,0,1,.032.156A4.731,4.731,0,0,1,1126.289,187.208Z"
          transform="translate(-997.858 -166.749)"
          fill="#eea886"
        />
        <path
          id="Path_3562"
          data-name="Path 3562"
          d="M1127.508,316.563c-.129,1.357-.3,3.561-.669,5.889-.239,1.48-.573,3.075-.88,4.569-.027-.678-.032-1.375-.014-2.1a48.915,48.915,0,0,1,.422-5c.293-2.209.637-4.239.756-6.508A8.279,8.279,0,0,1,1127.508,316.563Z"
          transform="translate(-997.703 -279.34)"
          fill="#3c4145"
        />
        <path
          id="Path_3563"
          data-name="Path 3563"
          d="M1163.783,273.67c-.175-2.264.9-4.361.458-6.25h0c.1.208,2.635,5.789,3.183,5.989s7.447,7.928,8.02,7.389c.616-.573,2.027-2.217,2.027-2.217l-7.414-8-5.156-9.936c-.083-.066-1.164-.647-1.88-.989-.745-.354-1.688-.792-2.521-1.178-.4-.186-.776-.357-1.094-.5l-.026.021a55.5,55.5,0,0,1,1.282,6.843c.269,1.889.647,5.1,1.01,8.349h0c.287,2.558.942,5.183,1.146,7.142a64.019,64.019,0,0,0,2.039,7.647l1.312-1.211a.8.8,0,0,0,.22-.819A68.715,68.715,0,0,1,1163.783,273.67Z"
          transform="translate(-1027.317 -230.251)"
          fill="#3c4145"
        />
        <path
          id="Path_3564"
          data-name="Path 3564"
          d="M1130.851,316.563c-.128,1.357-.3,3.561-.669,5.889l-.472-2.534c.293-2.209.637-4.239.756-6.508A8.277,8.277,0,0,1,1130.851,316.563Z"
          transform="translate(-1001.046 -279.34)"
          fill="#51565c"
        />
        <path
          id="Path_3565"
          data-name="Path 3565"
          d="M1159.1,257.78a52.243,52.243,0,0,1,1.307,6.887c.269,1.889.647,5.1,1.01,8.349l.376-9.286-.769-.833.687-.855-1.462-3.735c-.4-.186-.776-.357-1.094-.5Z"
          transform="translate(-1027.069 -230.083)"
          fill="#51565c"
        />
        <path
          id="Path_3566"
          data-name="Path 3566"
          d="M1135.358,266.8h0l-.014.028v.014l-.623,1.742c-.036-.66-.092-1.352-.178-2.076-.009-.073-.019-.147-.032-.22.252.16.532.325.839.5h0Z"
          transform="translate(-1005.296 -237.618)"
          fill="#f5e2d9"
        />
        <path
          id="Path_3567"
          data-name="Path 3567"
          d="M1142.782,250.87a6.248,6.248,0,0,1-.882,2.281l1.833,2.395.133-3.884Z"
          transform="translate(-1011.839 -223.965)"
          fill="#f5e2d9"
        />
        <path
          id="Path_3568"
          data-name="Path 3568"
          d="M1139.877,270.78a6.284,6.284,0,0,0-.229,1.823,1.736,1.736,0,0,0,1.345-.071A6.269,6.269,0,0,0,1139.877,270.78Z"
          transform="translate(-1009.821 -241.594)"
          fill="#464157"
        />
        <path
          id="Path_3569"
          data-name="Path 3569"
          d="M1156.61,418.034a26.68,26.68,0,0,0,0-4.144l-.169.011a27.779,27.779,0,0,1,0,4.1Z"
          transform="translate(-1024.714 -368.307)"
          fill="#ad9f99"
        />
        <path
          id="Path_3570"
          data-name="Path 3570"
          d="M1145.476,446s1.6.193,2.139.324l-.07,1.8-2.1-.229Z"
          transform="translate(-1014.974 -396.738)"
          fill="#69737a"
        />
        <path
          id="Path_3571"
          data-name="Path 3571"
          d="M1139.576,283.495a36.235,36.235,0,0,1,1.782,9.521c.2,5.07-.337,6.381-.337,6.381l-1.979,1.782-.662-2.316a30.143,30.143,0,0,0,.83-12.145c-.173-1.18-.431-3.418-.431-3.418Z"
          transform="translate(-1008.723 -252.679)"
          fill="#464157"
        />
      </g>
    </svg>