<svg
      xmlns="http://www.w3.org/2000/svg"
      width="60"
      height="54"
      viewBox="0 0 82 74.939">
      <g id="Outline_64_" transform="translate(0 -22)">
        <g
          id="Group_8290"
          data-name="Group 8290"
          transform="translate(1.204 23.204)">
          <g
            id="Group_8288"
            data-name="Group 8288"
            transform="translate(0 10.912)">
            <path
              id="Path_4965"
              data-name="Path 4965"
              d="M71.5,97.5v61.62h59.053a10.27,10.27,0,0,0,10.27-10.27V97.5Z"
              transform="translate(-61.23 -97.5)"
              fill="#feefcd"
            />
            <path
              id="Path_4966"
              data-name="Path 4966"
              d="M66.553,417.5H7.5a10.27,10.27,0,0,0,10.27,10.27H76.823A10.27,10.27,0,0,1,66.553,417.5Z"
              transform="translate(-7.5 -366.15)"
              fill="#fde09b"
            />
          </g>
          <g
            id="Group_8289"
            data-name="Group 8289"
            transform="translate(23.75)">
            <circle
              id="Ellipse_185"
              data-name="Ellipse 185"
              cx="6.419"
              cy="6.419"
              r="6.419"
              fill="#f6b333"
            />
            <path
              id="Path_4967"
              data-name="Path 4967"
              d="M165.128,42.1a6.418,6.418,0,0,1-5.85-9.059,6.419,6.419,0,1,0,8.491,8.491A6.393,6.393,0,0,1,165.128,42.1Z"
              transform="translate(-155.5 -32.475)"
              fill="#db991b"
            />
          </g>
        </g>
        <g id="Group_8291" data-name="Group 8291" transform="translate(0 22)">
          <path
            id="Path_4968"
            data-name="Path 4968"
            d="M80.8,32.912h-9a1.2,1.2,0,1,0,0,2.407h7.8V85.466a9.067,9.067,0,0,1-18.133,0,1.2,1.2,0,0,0-1.2-1.2h-28.9a1.2,1.2,0,1,0,0,2.407H59.116A11.471,11.471,0,0,0,63.5,94.532H11.474a9.08,9.08,0,0,1-8.987-7.863H25.595a1.2,1.2,0,1,0,0-2.407H12.677V35.319H26.315a7.6,7.6,0,0,0,9.525.473l6.877,6.877a1.2,1.2,0,1,0,1.7-1.7L38.77,35.319H66.145a1.2,1.2,0,1,0,0-2.407h-27.9a7.622,7.622,0,1,0-13.75,0H11.474a1.2,1.2,0,0,0-1.2,1.2V84.262H1.2a1.2,1.2,0,0,0-1.2,1.2A11.487,11.487,0,0,0,11.474,96.939H70.526A11.487,11.487,0,0,0,82,85.466V34.115A1.2,1.2,0,0,0,80.8,32.912Zm-49.425-8.5a5.211,5.211,0,0,1,3.919,8.65l-.043.026c-.017.01-.034.02-.051.031s-.036.026-.054.039l-.041.031a1.207,1.207,0,0,0-.168.168c-.011.014-.021.028-.032.042s-.026.034-.038.052-.022.035-.032.053-.017.027-.025.042a5.214,5.214,0,1,1-3.435-9.134Z"
            transform="translate(0 -22)"
          />
          <path
            id="Path_4973"
            data-name="Path 4973"
            d="M236.082,323.2a1.2,1.2,0,0,0-1.2-1.2H209.2a1.2,1.2,0,0,0,0,2.407h25.675A1.2,1.2,0,0,0,236.082,323.2Z"
            transform="translate(-174.622 -273.859)"
          />
          <path
            id="Path_4974"
            data-name="Path 4974"
            d="M225.2,362a1.2,1.2,0,0,0,0,2.407h16.689a1.2,1.2,0,0,0,0-2.407Z"
            transform="translate(-188.055 -307.44)"
          />
          <path
            id="Path_4975"
            data-name="Path 4975"
            d="M246.082,323.2a1.2,1.2,0,0,0-1.2-1.2H209.2a1.2,1.2,0,0,0,0,2.407h35.675A1.2,1.2,0,0,0,246.082,323.2Z"
            transform="translate(-180 -290.859)"
          />
          <path
            id="Path_4976"
            data-name="Path 4976"
            d="M225.2,362a1.2,1.2,0,0,0,0,2.407h26.689a1.2,1.2,0,0,0,0-2.407Z"
            transform="translate(-191.001 -324.439)"
          />
        </g>
      </g>
    </svg>