<svg xmlns="http://www.w3.org/2000/svg" width="1321.064" height="1172.068" viewBox="0 0 1321.064 1172.068">
  <g id="g8" transform="translate(-359.47 1914.427)">
    <g id="g10">
      <path id="path84" d="M1305.989-930.8c12.839,80.84-57.461,159.2-157.018,175S958.3-792.7,945.459-873.545s347.691-138.093,360.53-57.253" fill="#f9d207"/>
      <path id="path86" d="M1180.252-969.384c13.291,40.48,12.578,86.48,2.855,126.64-7.752,32.027-21.18,62.4-40.444,87.693,2.108-.28,4.192-.413,6.308-.747,99.557-15.813,169.857-94.16,157.018-175-4.88-30.733-60-41.467-125.737-38.586" fill="#faba0a"/>
      <path id="path88" d="M1022.315-1785.182a45.049,45.049,0,0,1,.088,4.733,4.608,4.608,0,0,1-.08.533c-.607,2.853-1.228,5.707-2.1,8.493a5.4,5.4,0,0,1-.395.92c-.243.467-2.656,5.307-4.195,7.64-.092.133-.189.267-.291.4a58.085,58.085,0,0,1-6.323,6.72,5.283,5.283,0,0,1-.856.667.707.707,0,0,1-.185.12c-1.72,1.107-5.349,3.387-7.1,4.427-.08.04-.159.093-.24.133-.16.094-.325.173-.495.253s-.343.133-.517.2c-2.863,1-5.777,1.853-8.711,2.613a6.64,6.64,0,0,1-1.145.187h-.2c-1.88.093-6.752.2-8.644.213h-.289c-.2-.013-.391-.027-.584-.053a5.386,5.386,0,0,1-.648-.12c-1.907-.44-6.24-1.494-8.119-2l-.148-.04c-.1-.027-.2-.067-.3-.093a5.387,5.387,0,0,1-.619-.253,2.731,2.731,0,0,1-.292-.147c-1.832-.947-5.443-2.933-7.245-3.96-.059-.027-.117-.067-.176-.093a7.006,7.006,0,0,1-1.151-.84c-2.243-1.973-4.46-3.987-6.519-6.16-.191-.2-.371-.4-.544-.613a31.889,31.889,0,0,1-6.853-15.28c-.068-2.867-.137-5.72-.205-8.587a32.02,32.02,0,0,1,5.917-15.253q.436-.46.871-.92a23.711,23.711,0,0,1,1.683-3.427,24.251,24.251,0,0,1,7.579-9.547,23.857,23.857,0,0,1,11.164-5.627,24.454,24.454,0,0,1,12.7-1.44c.417.067.833.133,1.245.213.191.04.381.08.571.133,2.8.667,5.651,1.32,8.424,2.08a10.82,10.82,0,0,1,1.8.667,85.129,85.129,0,0,1,7.885,4.307,5.966,5.966,0,0,1,.6.413,74.559,74.559,0,0,1,6.443,6.04,4.118,4.118,0,0,1,.431.493c3.947,5.2,6.675,10.533,7.623,17.08a41.884,41.884,0,0,1,.143,4.773Zm512.2,598.358-13.146,2.08L1446.783-1443.3C1398.69-1603.09,1291.261-1708,1148.536-1735.4a157.022,157.022,0,0,0-1.419-35.92,157.032,157.032,0,0,0-179.734-130.466,157.039,157.039,0,0,0-130.468,179.733,156.732,156.732,0,0,0,11.359,38.227c-126.968,74.466-199.121,211.706-186.741,365.226l7.661,269.186-19.541,3.107a116.992,116.992,0,0,0-97.19,133.893h0a116.983,116.983,0,0,0,133.888,97.186l884.871-140.52a117,117,0,0,0,97.187-133.893h0a116.986,116.986,0,0,0-133.893-97.186" fill="#f9d207"/>
      <path id="path90" d="M767.273-1070.117c-54.319-305.133-1.564-517.105,162.94-582.172-92.252-61.493-63.672-161.2-19-228.986a157.023,157.023,0,0,0-74.293,159.226,156.733,156.733,0,0,0,11.359,38.226c-126.968,74.467-199.121,211.706-186.741,365.226l7.661,269.186-19.541,3.107a116.992,116.992,0,0,0-97.19,133.893h0a116.983,116.983,0,0,0,133.888,97.186l57.428-9.12C645.048-828,592.821-971.784,716.638-1023.7c.657-.267,47.031-44.186,50.635-46.413" fill="#f9e006"/>
      <path id="path92" d="M1534.516-1186.824l-13.146,2.08L1446.783-1443.3C1398.69-1603.09,1291.261-1708,1148.536-1735.4a157.022,157.022,0,0,0-1.419-35.92A157.093,157.093,0,0,0,1015.362-1902c9.385,18.947,46.234,34.307,57.177,86.293,19.944,94.76-.861,128.427,3.375,139.866,2.351,6.333,198.231,8.92,261.323,319.266,15.373,75.573,34.48,182.333-17.433,243.2,91.566,32.267,121.42,115.906,61.78,187.733l189.639-30.107a117,117,0,0,0,97.187-133.893h0a116.986,116.986,0,0,0-133.893-97.186" fill="#faba0a"/>
      <path id="path94" d="M1534.516-1186.824l-13.146,2.08-2.88-27.6c-14.68,6.453-553.9,139.826-849.623,125.986l.309,36.32c102.849,30.12,763.127-58.226,865.341-136.786" fill="#2a5798" opacity="0.4"/>
      <path id="path96" d="M916.5-1594.876c-10.376-14.933-29.893-22.36-47.617-18.44-1.425.32-2.733.973-4.141,1.347-.136-.013-.263-.067-.4-.067-16.125.027-29.669,5.333-42.573,14.827-18.048,13.28-31.9,32.187-41.264,52.373-11.371,24.533-14.744,55.827,6.668,75.986,19.9,18.747,50.536,16.147,74.474,7.893,35.927-12.4,66.1-50.786,66.741-89.24.272-16.253-2.456-31.093-11.889-44.68" fill="#f0ee14"/>
      <path id="path98" d="M826.539-1405.757a31.964,31.964,0,0,0-10.349-12.667L809-1422.357a31.935,31.935,0,0,0-16.648-1.773l-3.605.573A24.09,24.09,0,0,0,777-1418.9a23.917,23.917,0,0,0-9.14,8.16,23.971,23.971,0,0,0-4.921,11.213,24.09,24.09,0,0,0-.789,12.613q1.232,4.12,2.464,8.227a31.98,31.98,0,0,0,10.351,12.667l7.185,3.933A31.947,31.947,0,0,0,798.8-1360.3l3.6-.573a24.113,24.113,0,0,0,11.752-4.667,23.908,23.908,0,0,0,9.14-8.16,23.93,23.93,0,0,0,4.923-11.213A24.111,24.111,0,0,0,829-1397.53c-.823-2.747-1.644-5.48-2.465-8.227" fill="#f0ee14"/>
      <path id="path100" d="M847.059-943.638c-60.355-23.333-129.886-17.48-193.188-30.707-38.653-8.067-45.623,53.653-6.849,61.186,66,12.813,143.988,23.787,202.274-16.4,5.217-3.6,3.189-11.987-2.237-14.08" fill="#f0ee14"/>
      <path id="path102" d="M956.9-969.731,913.53-963.6c-22.959,3.24-17.221,39.613,5.651,35.573l43.133-7.613c21.876-3.853,16.617-37.213-5.416-34.093" fill="#f0ee14"/>
      <path id="path104" d="M1118.771-742.358a205.644,205.644,0,0,1-181.6-109.266l18.867-10.013A184.436,184.436,0,0,0,1147.76-766a184.29,184.29,0,0,0,152.66-150.32l21.036,3.667a205.637,205.637,0,0,1-170.339,167.733,205.972,205.972,0,0,1-32.345,2.56" fill="#2a5798"/>
      <path id="path106" d="M992.1-1893.075a147.07,147.07,0,0,0-23.037,1.827c-79.712,12.667-134.261,87.813-121.606,167.52a147.2,147.2,0,0,0,10.6,35.64l3.795,8.68-8.173,4.8c-125.641,73.68-193.49,206.453-181.5,355.159l7.955,279.133-28.8,4.547A106.476,106.476,0,0,0,563-914.091a105.588,105.588,0,0,0,42.551,69.36,105.651,105.651,0,0,0,79.119,18.973l884.871-140.533a105.638,105.638,0,0,0,69.36-42.533,105.718,105.718,0,0,0,18.973-79.133c-9.2-57.893-63.88-97.453-121.68-88.333l-22.467,3.587-77.2-267.653c-47.146-156.613-150.151-257.706-290.01-284.559l-9.32-1.787.688-9.453a146.982,146.982,0,0,0-1.313-33.48c-11.436-71.973-73.8-123.44-144.477-123.44ZM667.722-803.065a126.677,126.677,0,0,1-74.709-24.387,126.794,126.794,0,0,1-51.088-83.28A127.808,127.808,0,0,1,647.98-1056.837l10.277-1.627-7.4-259.839c-12.372-153.36,56.311-291.159,184.1-369.959a165.008,165.008,0,0,1-8.579-32.107c-14.511-91.346,48-177.453,139.328-191.959,91.376-14.533,177.448,48,191.948,139.333a164.619,164.619,0,0,1,1.949,28.973c141.454,30.72,249.555,138.693,297.409,297.639l72,249.613,3.84-.6a127.727,127.727,0,0,1,146.093,106.053A127.8,127.8,0,0,1,1572.89-945.211L688.029-804.691a127.619,127.619,0,0,1-20.307,1.627" fill="#2a5798"/>
      <path id="path108" d="M988.052-1817.049a32.449,32.449,0,0,0-5.169.413,32.842,32.842,0,0,0-27.249,37.546,32.9,32.9,0,0,0,37.548,27.24,32.841,32.841,0,0,0,27.248-37.547,32.861,32.861,0,0,0-32.377-27.653Zm-.052,86.96a54.225,54.225,0,0,1-53.444-45.667,54.2,54.2,0,0,1,44.991-61.96,54.178,54.178,0,0,1,61.96,44.986,54.2,54.2,0,0,1-44.989,61.96,52.783,52.783,0,0,1-8.517.68" fill="#2a5798"/>
      <path id="path110" d="M1399.01-1766.716c6.307,3.573,12.48,7.36,18.48,11.413q4.08,2.76,8.08,5.667c1.32.973,2.627,1.973,3.947,2.947,3.187,2.36-5.467-4.373-1.027-.76a290.669,290.669,0,0,1,30.973,28.973c4.667,5.093,8.773,10.693,13.413,15.8-1.92-2.107-3.693-4.867-.8-1,.973,1.32,1.96,2.653,2.906,3.987,2.12,2.933,4.173,5.92,6.16,8.933a274.089,274.089,0,0,1,20.493,37.12c3.146,6.88,12.146,12.8,19.133,14.72,7.667,2.107,17.88,1.16,24.68-3.227,15.773-10.173,18.96-27.467,11.494-43.813-25.987-56.92-71.253-105.24-125.6-136.053-14.573-8.267-35.667-3.947-43.813,11.48-8.027,15.187-4.08,34.987,11.48,43.813h0" fill="#2a5798"/>
      <path id="path112" d="M1495.69-1806.649q17.18,18.6,34.387,37.2a24,24,0,0,0,10.307,6.627,24.055,24.055,0,0,0,12.333,2.747,24.055,24.055,0,0,0,12.333-2.747,24,24,0,0,0,10.307-6.627c5.6-6.107,9.76-14.12,9.387-22.64-.387-2.84-.76-5.68-1.147-8.52a31.968,31.968,0,0,0-8.24-14.133q-17.18-18.6-34.387-37.2a24.045,24.045,0,0,0-10.307-6.613,23.962,23.962,0,0,0-12.333-2.76,24.011,24.011,0,0,0-12.347,2.76,24.005,24.005,0,0,0-10.293,6.613c-5.613,6.107-9.773,14.12-9.387,22.653.387,2.84.76,5.667,1.147,8.507a31.966,31.966,0,0,0,8.24,14.133h0" fill="#2a5798"/>
      <path id="path114" d="M492.292-1495.863c1.776-5.227,3.731-10.373,5.768-15.493,1.619-4.08-.833,1.52-1.085,2.573a20.631,20.631,0,0,1,1.489-3.373q1.7-3.76,3.523-7.48a262.876,262.876,0,0,1,16.395-28.693c2.864-4.347,5.889-8.587,8.967-12.787,3.292-4.493-3.552,4.44-1.1,1.373.768-.947,1.521-1.92,2.291-2.867q2.6-3.22,5.3-6.347a264.086,264.086,0,0,1,23.139-23.6c12.467-11.267,12.3-34,0-45.293-13.32-12.227-31.988-12-45.288,0-37.419,33.8-64.969,77.333-81.158,124.96-5.4,15.867,6.187,35.707,22.367,39.387,17.757,4.053,33.613-5.373,39.392-22.36h0" fill="#2a5798"/>
      <path id="path116" d="M419.167-1571.809q17.512-24.12,35.021-48.24a23.883,23.883,0,0,0,3.8-11.92,24.221,24.221,0,0,0-.572-12.76c-2.045-7.427-7.789-15.48-14.716-19.147-7.432-3.92-16.436-5.893-24.676-3.227q-3.824,1.62-7.649,3.227a32.234,32.234,0,0,0-11.488,11.494q-17.51,24.12-35.021,48.24a23.877,23.877,0,0,0-3.8,11.907,24.27,24.27,0,0,0,.572,12.773c2.047,7.427,7.789,15.48,14.717,19.133,7.431,3.933,16.435,5.893,24.675,3.227q3.824-1.6,7.649-3.227a32.09,32.09,0,0,0,11.488-11.48h0" fill="#2a5798"/>
    </g>
  </g>
</svg>
